<?xml version="1.0" encoding="UTF-8"?>
<svg version="1.1" xmlns="http://www.w3.org/2000/svg" width="1000" height="1000">
<path d="M0 0 C0 0.66 0 1.32 0 2 C1.14339844 1.98839844 2.28679687 1.97679687 3.46484375 1.96484375 C4.95572754 1.95546712 6.44661309 1.94636679 7.9375 1.9375 C9.06961914 1.92493164 9.06961914 1.92493164 10.22460938 1.91210938 C12.14994313 1.90347559 14.07535581 1.94775667 16 2 C16.33 2.33 16.66 2.66 17 3 C19.18019479 3.39666227 21.3696463 3.74315237 23.5625 4.0625 C24.76003906 4.23910156 25.95757813 4.41570312 27.19140625 4.59765625 C28.11824219 4.73042969 29.04507812 4.86320312 30 5 C30 5.66 30 6.32 30 7 C33.63 7 37.26 7 41 7 C41 7.99 41 8.98 41 10 C43.64 10 46.28 10 49 10 C49 10.66 49 11.32 49 12 C49.845625 12.103125 50.69125 12.20625 51.5625 12.3125 C55.35335958 13.07067192 58.47538611 14.42651166 62 16 C63.11375 16.350625 64.2275 16.70125 65.375 17.0625 C68 18 68 18 69 20 C71.52733235 20.65555119 71.52733235 20.65555119 74 21 C74 21.66 74 22.32 74 23 C75.65 23.33 77.3 23.66 79 24 C79 24.66 79 25.32 79 26 C79.99 26 80.98 26 82 26 C82 26.99 82 27.98 82 29 C83.65 29 85.3 29 87 29 C87 29.66 87 30.32 87 31 C87.70125 31.103125 88.4025 31.20625 89.125 31.3125 C92.39137647 32.09359003 95.0471852 33.42058743 98 35 C98 35.66 98 36.32 98 37 C98.99 37 99.98 37 101 37 C101 37.99 101 38.98 101 40 C102.65 40 104.3 40 106 40 C106 40.66 106 41.32 106 42 C106.7425 42.103125 107.485 42.20625 108.25 42.3125 C111.1973519 43.04933797 112.78383074 43.94799142 115 46 C115 46.66 115 47.32 115 48 C116.65 48 118.3 48 120 48 C120 48.66 120 49.32 120 50 C121.1446875 50.185625 121.1446875 50.185625 122.3125 50.375 C125 51 125 51 128 53 C128 53.99 128 54.98 128 56 C129.65 56 131.3 56 133 56 C133.33 56.99 133.66 57.98 134 59 C135.65 59 137.3 59 139 59 C139 59.66 139 60.32 139 61 C139.86625 61.185625 139.86625 61.185625 140.75 61.375 C143.02335767 62.00648824 144.9253529 62.88858191 147 64 C147 64.99 147 65.98 147 67 C148.98 67 150.96 67 153 67 C153 67.66 153 68.32 153 69 C155.65228812 70.07525194 158.28368454 71.09456151 161 72 C161.33 72.66 161.66 73.32 162 74 C164.34038186 75.13102526 164.34038186 75.13102526 167.0625 76.125 C167.98160156 76.47820312 168.90070313 76.83140625 169.84765625 77.1953125 C170.55792969 77.46085937 171.26820313 77.72640625 172 78 C172 78.66 172 79.32 172 80 C173.65 80.33 175.3 80.66 177 81 C177 81.66 177 82.32 177 83 C179.475 83.495 179.475 83.495 182 84 C182 84.66 182 85.32 182 86 C182.99 86 183.98 86 185 86 C185 86.66 185 87.32 185 88 C187.475 88.495 187.475 88.495 190 89 C190 89.66 190 90.32 190 91 C190.99 91.12375 190.99 91.12375 192 91.25 C195.93109287 92.23277322 199.63248564 93.71827298 203 96 C203.33 96.99 203.66 97.98 204 99 C206.475 99.495 206.475 99.495 209 100 C209 100.66 209 101.32 209 102 C209.556875 102.103125 210.11375 102.20625 210.6875 102.3125 C213.44998593 103.1337796 215.54311148 104.50189725 218 106 C219.65369357 106.69822617 221.31727014 107.37498605 223 108 C223 108.66 223 109.32 223 110 C223.763125 109.938125 224.52625 109.87625 225.3125 109.8125 C228.60076005 110.04191349 228.77845987 110.73016552 231 113 C232.49338987 113.92105685 234.01674243 114.79482378 235.5625 115.625 C236.34753906 116.05039062 237.13257813 116.47578125 237.94140625 116.9140625 C239.28677769 117.62376508 240.63949949 118.31974974 242 119 C242 119.66 242 120.32 242 121 C242.56589844 121.11472656 243.13179687 121.22945313 243.71484375 121.34765625 C246.25576305 122.0730127 248.26901522 123.12970919 250.5625 124.4375 C251.32691406 124.86933594 252.09132813 125.30117188 252.87890625 125.74609375 C254.61991382 126.77530817 256.31720226 127.87813484 258 129 C258 129.99 258 130.98 258 132 C258.99 132.33 259.98 132.66 261 133 C261 133.66 261 134.32 261 135 C261.99 135.33 262.98 135.66 264 136 C266.46552067 139.37867647 267 140.70558202 267 145 C267.66 145 268.32 145 269 145 C269 146.98 269 148.96 269 151 C269.99 151 270.98 151 272 151 C272.02895976 154.12498063 272.04678483 157.2499269 272.0625 160.375 C272.07087891 161.26445312 272.07925781 162.15390625 272.08789062 163.0703125 C272.09111328 163.92109375 272.09433594 164.771875 272.09765625 165.6484375 C272.10289307 166.43395996 272.10812988 167.21948242 272.11352539 168.02880859 C272 170 272 170 271 172 C270.34 172 269.68 172 269 172 C269.1546875 173.5159375 269.1546875 173.5159375 269.3125 175.0625 C268.81446719 181.33771335 265.44025096 184.9010096 260.8125 188.9375 C258 191 258 191 256 191 C255.67 191.99 255.34 192.98 255 194 C254.34 194 253.68 194 253 194 C253 194.66 253 195.32 253 196 C252.44570313 196.26554688 251.89140625 196.53109375 251.3203125 196.8046875 C250.59585938 197.15789062 249.87140625 197.51109375 249.125 197.875 C248.40570312 198.22304688 247.68640625 198.57109375 246.9453125 198.9296875 C244.84864981 199.96557543 244.84864981 199.96557543 243 202 C241.68 202 240.36 202 239 202 C239 202.66 239 203.32 239 204 C237.35 204.33 235.7 204.66 234 205 C234 205.66 234 206.32 234 207 C232.35 207 230.7 207 229 207 C228.67 207.99 228.34 208.98 228 210 C227.34 210 226.68 210 226 210 C226 210.66 226 211.32 226 212 C224.02 212.33 222.04 212.66 220 213 C220 213.66 220 214.32 220 215 C218.35 215.33 216.7 215.66 215 216 C215 216.66 215 217.32 215 218 C211.63316085 220.43160605 210.26649636 221 206 221 C206 221.66 206 222.32 206 223 C205.46632813 223.29132813 204.93265625 223.58265625 204.3828125 223.8828125 C199.25214612 226.70556667 194.27307853 229.67579709 189.359375 232.86328125 C186.69940889 234.14482121 184.91572156 234.22229792 182 234 C180.9658734 237.10237979 180.86277399 239.2700315 180.84178162 242.52384949 C180.8319928 243.67229843 180.82220398 244.82074738 180.81211853 246.0039978 C180.80636307 247.26491241 180.8006076 248.52582703 180.79467773 249.82495117 C180.7850982 251.16528118 180.77508807 252.50560818 180.76467896 253.84593201 C180.73763198 257.48611484 180.7166213 261.12631063 180.69667697 264.76653838 C180.67481615 268.57023849 180.64742793 272.37389865 180.62062073 276.17756653 C180.57069515 283.38105252 180.52575582 290.58456068 180.48259836 297.78809005 C180.43322484 305.98875544 180.37830714 314.18938075 180.32291877 322.39000738 C180.20910079 339.25996787 180.10226135 356.12996557 180 373 C182.81288705 372.85980308 185.62516885 372.71312045 188.4375 372.5625 C189.23994141 372.52318359 190.04238281 372.48386719 190.86914062 372.44335938 C194.75239561 372.5945704 194.75239561 372.5945704 198 371 C200.5 370.875 200.5 370.875 203 371 C203.33 371.33 203.66 371.66 204 372 C206.77478683 372.12312902 209.52854001 372.18611654 212.3046875 372.2109375 C214.01954079 372.23900645 215.73438442 372.26767091 217.44921875 372.296875 C220.16389698 372.33816288 222.87839489 372.37503293 225.59326172 372.40136719 C228.205787 372.42893249 230.81748095 372.47480541 233.4296875 372.5234375 C234.2422702 372.52669037 235.05485291 372.52994324 235.89205933 372.53329468 C241.55383909 372.65714446 241.55383909 372.65714446 243.72659302 374.32681274 C245.61953112 376.81403006 245.20175999 378.97360022 245 382 C244.01 382.33 243.02 382.66 242 383 C242 383.99 242 384.98 242 386 C241.01 386 240.02 386 239 386 C239 387.65 239 389.3 239 391 C238.34 391 237.68 391 237 391 C237 391.99 237 392.98 237 394 C236.01 394 235.02 394 234 394 C234 395.65 234 397.3 234 399 C233.01 399.495 233.01 399.495 232 400 C231.67 400.99 231.34 401.98 231 403 C230.34 403 229.68 403 229 403 C228.67 404.65 228.34 406.3 228 408 C227.34 408 226.68 408 226 408 C225.67 409.65 225.34 411.3 225 413 C224.34 413 223.68 413 223 413 C223.0928125 414.1446875 223.0928125 414.1446875 223.1875 415.3125 C223 418 223 418 221.625 419.8125 C220 421 220 421 218 421 C218 422.65 218 424.3 218 426 C217.01 426.33 216.02 426.66 215 427 C214.67 428.65 214.34 430.3 214 432 C213.34 432 212.68 432 212 432 C211.87625 432.763125 211.7525 433.52625 211.625 434.3125 C211 437 211 437 209 440 C208.34 440 207.68 440 207 440 C206.88785156 440.72574219 206.77570312 441.45148438 206.66015625 442.19921875 C205.97038613 445.12563993 204.94489186 447.22287809 203.4375 449.8125 C202.98246094 450.60269531 202.52742187 451.39289063 202.05859375 452.20703125 C201.70925781 452.79871094 201.35992188 453.39039063 201 454 C200.34 454 199.68 454 199 454 C199 455.65 199 457.3 199 459 C198.01 459 197.02 459 196 459 C195.67 460.65 195.34 462.3 195 464 C194.34 464 193.68 464 193 464 C192.87625 464.556875 192.7525 465.11375 192.625 465.6875 C191.94023145 468.22114364 191.00866237 470.57921032 190 473 C189.34 473 188.68 473 188 473 C187.67 474.65 187.34 476.3 187 478 C186.34 478 185.68 478 185 478 C185 478.99 185 479.98 185 481 C184.34 481 183.68 481 183 481 C182.67 482.65 182.34 484.3 182 486 C181.34 486 180.68 486 180 486 C180 487.65 180 489.3 180 491 C179.01 491.33 178.02 491.66 177 492 C175.31460172 494.76405318 174.30830048 497.78395402 173.1875 500.8125 C171.3409066 505.48085411 169.19808099 509.1286388 166 513 C165.34 513 164.68 513 164 513 C163.67 514.98 163.34 516.96 163 519 C162.34 519 161.68 519 161 519 C161 519.99 161 520.98 161 522 C160.01 522 159.02 522 158 522 C157.67 524.31 157.34 526.62 157 529 C156.34 529 155.68 529 155 529 C155 530.98 155 532.96 155 535 C154.34 535 153.68 535 153 535 C152.67 535.99 152.34 536.98 152 538 C151.34 538 150.68 538 150 538 C149.67 539.65 149.34 541.3 149 543 C148.34 543 147.68 543 147 543 C147 543.99 147 544.98 147 546 C146.34 546 145.68 546 145 546 C144.67 547.65 144.34 549.3 144 551 C143.34 551 142.68 551 142 551 C141.67 552.65 141.34 554.3 141 556 C140.34 556 139.68 556 139 556 C139 557.32 139 558.64 139 560 C138.01 560 137.02 560 136 560 C135.87625 560.763125 135.7525 561.52625 135.625 562.3125 C135 565 135 565 133 568 C131.125 568.36328125 131.125 568.36328125 129 568.3125 C128.29875 568.30863281 127.5975 568.30476562 126.875 568.30078125 C125 568 125 568 123 566 C123 564.68 123 563.36 123 562 C122.01 561.67 121.02 561.34 120 561 C120 559.68 120 558.36 120 557 C119.34 557 118.68 557 118 557 C118 556.01 118 555.02 118 554 C117.01 553.67 116.02 553.34 115 553 C112.92469613 550.07920195 112 548.62453269 112 545 C111.34 545 110.68 545 110 545 C108.05668016 539.29959514 108.05668016 539.29959514 107.5625 536.6875 C107.376875 536.130625 107.19125 535.57375 107 535 C106.01 534.67 105.02 534.34 104 534 C104 532.68 104 531.36 104 530 C103.34 530 102.68 530 102 530 C99 524.25 99 524.25 99 522 C98.01 521.67 97.02 521.34 96 521 C96 519.35 96 517.7 96 516 C95.34 516 94.68 516 94 516 C93.67 514.35 93.34 512.7 93 511 C92.34 511 91.68 511 91 511 C91 510.01 91 509.02 91 508 C90.01 507.67 89.02 507.34 88 507 C86.39453125 504.56640625 86.39453125 504.56640625 84.8125 501.5625 C84.28269531 500.57378906 83.75289062 499.58507812 83.20703125 498.56640625 C82 496 82 496 82 494 C81.34 494 80.68 494 80 494 C80 492.35 80 490.7 80 489 C79.34 489 78.68 489 78 489 C77.566875 488.0925 77.13375 487.185 76.6875 486.25 C75.16060591 483.07459389 75.16060591 483.07459389 73.3125 480.8125 C72 479 72 479 72 476 C71.01 475.67 70.02 475.34 69 475 C69 474.01 69 473.02 69 472 C68.34 472 67.68 472 67 472 C66.17988688 470.44148245 65.36923787 468.87798284 64.5625 467.3125 C64.11003906 466.44238281 63.65757812 465.57226562 63.19140625 464.67578125 C62.04008072 462.09001736 61.43679247 459.78643472 61 457 C60.01 456.67 59.02 456.34 58 456 C58 454.35 58 452.7 58 451 C57.01 450.67 56.02 450.34 55 450 C55 449.34 55 448.68 55 448 C54.34 448 53.68 448 53 448 C53 446.35 53 444.7 53 443 C52.01 442.67 51.02 442.34 50 442 C50 440.68 50 439.36 50 438 C49.01 437.67 48.02 437.34 47 437 C47 436.01 47 435.02 47 434 C46.34 434 45.68 434 45 434 C45 432.35 45 430.7 45 429 C44.01 429 43.02 429 42 429 C42 427.35 42 425.7 42 424 C41.01 423.67 40.02 423.34 39 423 C39 421.68 39 420.36 39 419 C38.34 419 37.68 419 37 419 C34 413.375 34 413.375 34 410 C33.01 410 32.02 410 31 410 C30.15615325 408.58957044 29.32530504 407.17135868 28.5 405.75 C28.0359375 404.96109375 27.571875 404.1721875 27.09375 403.359375 C26 401 26 401 26 397 C25.01 396.67 24.02 396.34 23 396 C23 394.68 23 393.36 23 392 C22.01 391.67 21.02 391.34 20 391 C20 390.01 20 389.02 20 388 C19.34 388 18.68 388 18 388 C17.67 386.35 17.34 384.7 17 383 C16.34 383 15.68 383 15 383 C15 379.7 15 376.4 15 373 C19.2185469 370.89072655 22.13310996 370.73016564 26.6875 370.8125 C27.37650391 370.81314453 28.06550781 370.81378906 28.77539062 370.81445312 C33.85944475 370.85944475 33.85944475 370.85944475 35 372 C36.76859193 372.09946453 38.54111451 372.13080217 40.3125 372.1328125 C41.38757813 372.13410156 42.46265625 372.13539063 43.5703125 372.13671875 C44.70210937 372.13285156 45.83390625 372.12898438 47 372.125 C48.13179687 372.12886719 49.26359375 372.13273437 50.4296875 372.13671875 C51.50476563 372.13542969 52.57984375 372.13414062 53.6875 372.1328125 C54.68136719 372.13168457 55.67523437 372.13055664 56.69921875 372.12939453 C58.96375226 372.2583433 58.96375226 372.2583433 60 371 C66.6 371 73.2 371 80 371 C80 311.6 80 252.2 80 191 C79.34 191 78.68 191 78 191 C76.49843126 187.99686252 76.90718796 185.20932478 76.9375 181.875 C76.94652344 180.59367188 76.95554687 179.31234375 76.96484375 177.9921875 C76.98224609 176.51105469 76.98224609 176.51105469 77 175 C76.34 175 75.68 175 75 175 C72.4084738 169.06108578 71.59631705 164.45892714 72 158 C71.01 158 70.02 158 69 158 C69 156.35 69 154.7 69 153 C68.34 153 67.68 153 67 153 C66.68546875 152.39671875 66.3709375 151.7934375 66.046875 151.171875 C63.34691964 146.08790166 63.34691964 146.08790166 59.6875 141.6875 C59.130625 141.130625 58.57375 140.57375 58 140 C58 138.68 58 137.36 58 136 C57.34 136 56.68 136 56 136 C53.70351351 133.4385343 53 132.52032428 53 129 C52.01 128.67 51.02 128.34 50 128 C50 127.34 50 126.68 50 126 C49.01 125.67 48.02 125.34 47 125 C47 124.34 47 123.68 47 123 C46.195625 122.9071875 46.195625 122.9071875 45.375 122.8125 C41.82973843 121.59964736 39.7407608 119.55389074 37 117 C37 116.34 37 115.68 37 115 C36.01 115 35.02 115 34 115 C34 114.34 34 113.68 34 113 C32.35 112.67 30.7 112.34 29 112 C29 111.34 29 110.68 29 110 C27.35 110 25.7 110 24 110 C23.67 109.01 23.34 108.02 23 107 C21.35 106.67 19.7 106.34 18 106 C18 105.34 18 104.68 18 104 C15.36 104 12.72 104 10 104 C10 103.34 10 102.68 10 102 C9.41992188 102.02320313 8.83984375 102.04640625 8.2421875 102.0703125 C7.46101563 102.08835937 6.67984375 102.10640625 5.875 102.125 C5.10929687 102.14820313 4.34359375 102.17140625 3.5546875 102.1953125 C1 102 1 102 -1.75390625 101.01367188 C-5.14359667 99.95515844 -7.95098772 99.68711464 -11.4921875 99.5859375 C-13.29042969 99.52792969 -13.29042969 99.52792969 -15.125 99.46875 C-16.3625 99.4378125 -17.6 99.406875 -18.875 99.375 C-20.13570313 99.33632813 -21.39640625 99.29765625 -22.6953125 99.2578125 C-25.79673137 99.16383011 -28.89814886 99.07816589 -32 99 C-32 99.66 -32 100.32 -32 101 C-33.14339844 101.13277344 -34.28679687 101.26554687 -35.46484375 101.40234375 C-36.9557562 101.5805031 -38.44664018 101.75890082 -39.9375 101.9375 C-40.69224609 102.02451172 -41.44699219 102.11152344 -42.22460938 102.20117188 C-45.92187458 102.34324099 -45.92187458 102.34324099 -49 104 C-51.0279979 104.2253331 -53.05674874 104.44767185 -55.08984375 104.62109375 C-57.2328948 104.86222227 -57.2328948 104.86222227 -59 107 C-60.98536627 107.70905938 -62.98910922 108.36694179 -65 109 C-66.35641157 109.5149586 -67.71051881 110.03601961 -69.0625 110.5625 C-72.01858905 111.68592732 -74.86369084 112.50995169 -78 113 C-78 113.66 -78 114.32 -78 115 C-85.42857143 117.14285714 -85.42857143 117.14285714 -89 118 C-89 118.66 -89 119.32 -89 120 C-92.72965139 122.03435531 -94.66905042 123 -99 123 C-99 123.99 -99 124.98 -99 126 C-100.32 126 -101.64 126 -103 126 C-103 126.66 -103 127.32 -103 128 C-104.65 128.33 -106.3 128.66 -108 129 C-108 129.66 -108 130.32 -108 131 C-109.65 131.33 -111.3 131.66 -113 132 C-113 132.66 -113 133.32 -113 134 C-113.99 134 -114.98 134 -116 134 C-116.33 134.99 -116.66 135.98 -117 137 C-117.66 137 -118.32 137 -119 137 C-119 137.66 -119 138.32 -119 139 C-120.65 139.33 -122.3 139.66 -124 140 C-124 140.66 -124 141.32 -124 142 C-124.99 142 -125.98 142 -127 142 C-127.33 142.99 -127.66 143.98 -128 145 C-128.99 145.33 -129.98 145.66 -131 146 C-131.33 146.66 -131.66 147.32 -132 148 C-132.99 148 -133.98 148 -135 148 C-135 148.66 -135 149.32 -135 150 C-135.66 150 -136.32 150 -137 150 C-137.33 150.99 -137.66 151.98 -138 153 C-138.66 153 -139.32 153 -140 153 C-140.33 153.99 -140.66 154.98 -141 156 C-141.66 156 -142.32 156 -143 156 C-143 156.66 -143 157.32 -143 158 C-147.30232558 162.76744186 -147.30232558 162.76744186 -151 164 C-151.33 164.99 -151.66 165.98 -152 167 C-152.66 167 -153.32 167 -154 167 C-154 167.66 -154 168.32 -154 169 C-154.66 169 -155.32 169 -156 169 C-156.33 169.99 -156.66 170.98 -157 172 C-157.66 172 -158.32 172 -159 172 C-159.33 172.99 -159.66 173.98 -160 175 C-160.66 175 -161.32 175 -162 175 C-162 175.66 -162 176.32 -162 177 C-162.66 177 -163.32 177 -164 177 C-164.33 177.99 -164.66 178.98 -165 180 C-165.66 180 -166.32 180 -167 180 C-167 180.99 -167 181.98 -167 183 C-167.99 183 -168.98 183 -170 183 C-170.12375 183.5775 -170.2475 184.155 -170.375 184.75 C-171.00648824 187.02335767 -171.88858191 188.9253529 -173 191 C-173.66 191 -174.32 191 -175 191 C-175.33 192.65 -175.66 194.3 -176 196 C-176.66 196 -177.32 196 -178 196 C-178.33 196.99 -178.66 197.98 -179 199 C-179.66 199 -180.32 199 -181 199 C-181 199.99 -181 200.98 -181 202 C-181.66 202 -182.32 202 -183 202 C-183.12375 202.721875 -183.2475 203.44375 -183.375 204.1875 C-184.54479822 209.45159201 -186.14023127 212.26084904 -190 216 C-191.23512079 218.13309192 -191.23512079 218.13309192 -192 220 C-192.66 220 -193.32 220 -194 220 C-194.33 221.98 -194.66 223.96 -195 226 C-195.66 226 -196.32 226 -197 226 C-197 226.99 -197 227.98 -197 229 C-197.99 229 -198.98 229 -200 229 C-199.938125 230.03125 -199.87625 231.0625 -199.8125 232.125 C-200.01135595 236.23468973 -200.94467803 238.48882496 -203 242 C-203.66 242 -204.32 242 -205 242 C-205.33 243.98 -205.66 245.96 -206 248 C-206.66 248 -207.32 248 -208 248 C-208 249.65 -208 251.3 -208 253 C-208.66 253 -209.32 253 -210 253 C-210.0825 254.010625 -210.165 255.02125 -210.25 256.0625 C-210.7390512 259.64408088 -212.15353395 262.08806136 -214.078125 265.15625 C-215.66767706 268.33535413 -215.75324839 271.4837895 -216 275 C-216.99 275 -217.98 275 -219 275 C-218.979375 276.299375 -218.95875 277.59875 -218.9375 278.9375 C-218.91600546 280.29165633 -218.92851801 281.64756083 -219 283 C-219.33 283.33 -219.66 283.66 -220 284 C-220.37168482 286.160418 -220.69791391 288.32875622 -221 290.5 C-221.88888889 296.88888889 -221.88888889 296.88888889 -223 298 C-223.2165625 299.7015625 -223.2165625 299.7015625 -223.4375 301.4375 C-224 305 -224 305 -226 307 C-226.42728546 309.79153954 -226.42728546 309.79153954 -226.5625 312.9375 C-226.75940555 316.24470948 -226.94961388 318.84884164 -228 322 C-228.20143465 323.61322573 -228.36365368 325.23153692 -228.5 326.8515625 C-228.5825 327.78484375 -228.665 328.718125 -228.75 329.6796875 C-228.91732506 331.65098589 -229.08398659 333.62234071 -229.25 335.59375 C-229.3325 336.52445313 -229.415 337.45515625 -229.5 338.4140625 C-229.5721875 339.2695166 -229.644375 340.1249707 -229.71875 341.00634766 C-230 343 -230 343 -231 344 C-231.07226502 345.85287502 -231.0838122 347.70833878 -231.0625 349.5625 C-231.05347656 350.57441406 -231.04445313 351.58632813 -231.03515625 352.62890625 C-231.02355469 353.41136719 -231.01195312 354.19382812 -231 355 C-229.35 354.67 -227.7 354.34 -226 354 C-226 353.34 -226 352.68 -226 352 C-224.35 351.67 -222.7 351.34 -221 351 C-220.67 350.01 -220.34 349.02 -220 348 C-219.34 348 -218.68 348 -218 348 C-218 347.34 -218 346.68 -218 346 C-216.35 346 -214.7 346 -213 346 C-212.67 345.01 -212.34 344.02 -212 343 C-210.35 343 -208.7 343 -207 343 C-207 342.34 -207 341.68 -207 341 C-205.58671871 340.18162558 -204.16921654 339.37053781 -202.75 338.5625 C-201.96109375 338.11003906 -201.1721875 337.65757812 -200.359375 337.19140625 C-198.21166532 336.10688398 -196.34794939 335.46851284 -194 335 C-194 334.34 -194 333.68 -194 333 C-191.04518508 330.25624329 -190.22528092 330 -186 330 C-185.67 329.01 -185.34 328.02 -185 327 C-183.35 327 -181.7 327 -180 327 C-180 326.34 -180 325.68 -180 325 C-178.35 324.67 -176.7 324.34 -175 324 C-175 323.34 -175 322.68 -175 322 C-172.09451118 319.95830515 -170.59857954 319 -167 319 C-166.67 318.01 -166.34 317.02 -166 316 C-164.35 316 -162.7 316 -161 316 C-160.67 315.01 -160.34 314.02 -160 313 C-158.68 313 -157.36 313 -156 313 C-156 312.34 -156 311.68 -156 311 C-154.35 311 -152.7 311 -151 311 C-150.67 310.01 -150.34 309.02 -150 308 C-148.35 308 -146.7 308 -145 308 C-145 307.01 -145 306.02 -145 305 C-143.609375 303.61328125 -143.609375 303.61328125 -141.75 302.3125 C-141.14671875 301.87550781 -140.5434375 301.43851563 -139.921875 300.98828125 C-138 300 -138 300 -134 300 C-133.67 299.01 -133.34 298.02 -133 297 C-129.5065403 295.25327015 -126.93154432 294 -123 294 C-123 293.34 -123 292.68 -123 292 C-120.09451118 289.95830515 -118.59857954 289 -115 289 C-114.67 288.01 -114.34 287.02 -114 286 C-110.5065403 284.25327015 -107.93154432 283 -104 283 C-104 282.34 -104 281.68 -104 281 C-99.93369653 278.21167762 -95.65017529 276.55005843 -91 275 C-91 274.34 -91 273.68 -91 273 C-88.02588876 271.76078698 -85.14737182 270.69941596 -82 270 C-82 269.34 -82 268.68 -82 268 C-80.35 267.67 -78.7 267.34 -77 267 C-77 266.34 -77 265.68 -77 265 C-75.35 264.67 -73.7 264.34 -72 264 C-72 263.34 -72 262.68 -72 262 C-70.2335343 260.9923048 -68.46166177 259.99408286 -66.6875 259 C-65.20830078 258.1646875 -65.20830078 258.1646875 -63.69921875 257.3125 C-61 256 -61 256 -58 256 C-58 255.34 -58 254.68 -58 254 C-56.35 254 -54.7 254 -53 254 C-52.67 253.01 -52.34 252.02 -52 251 C-50.67696283 250.6278958 -49.34262065 250.29369827 -48 250 C-47.67 249.34 -47.34 248.68 -47 248 C-46.01 248 -45.02 248 -44 248 C-44 247.34 -44 246.68 -44 246 C-43.360625 245.87625 -42.72125 245.7525 -42.0625 245.625 C-41.381875 245.41875 -40.70125 245.2125 -40 245 C-39.67 244.34 -39.34 243.68 -39 243 C-36.76664572 241.73423769 -34.55059954 240.56684289 -32.25 239.4375 C-31.62867188 239.12103516 -31.00734375 238.80457031 -30.3671875 238.47851562 C-26.93692122 236.77423776 -23.80080009 235.52950078 -20 235 C-19.67 234.01 -19.34 233.02 -19 232 C-17.29296875 230.6484375 -17.29296875 230.6484375 -15.1875 229.375 C-14.50042969 228.94960938 -13.81335938 228.52421875 -13.10546875 228.0859375 C-11 227 -11 227 -8.80078125 226.4765625 C-8.20652344 226.31929687 -7.61226562 226.16203125 -7 226 C-6.67 225.34 -6.34 224.68 -6 224 C-4.68 224 -3.36 224 -2 224 C-1.67 223.01 -1.34 222.02 -1 221 C0.65 221 2.3 221 4 221 C4 220.34 4 219.68 4 219 C6.90548882 216.95830515 8.40142046 216 12 216 C12 215.01 12 214.02 12 213 C12.804375 212.690625 13.60875 212.38125 14.4375 212.0625 C16.89080405 211.23664655 16.89080405 211.23664655 18 210 C19.66617115 209.95936168 21.33388095 209.957279 23 210 C23 209.34 23 208.68 23 208 C23.99 208 24.98 208 26 208 C26 207.34 26 206.68 26 206 C31.55511022 203.09619238 31.55511022 203.09619238 34.3125 202.5 C34.869375 202.335 35.42625 202.17 36 202 C36.33 201.01 36.66 200.02 37 199 C37.66 199 38.32 199 39 199 C39 198.34 39 197.68 39 197 C40.98 197 42.96 197 45 197 C45.33 196.01 45.66 195.02 46 194 C49.71055417 191.98569917 52.82851735 191.80597755 57 192 C57 192.66 57 193.32 57 194 C57.99 194.33 58.98 194.66 60 195 C61.29858069 198.22406241 61.13358906 201.56437635 61.125 205 C61.12757813 206.03125 61.13015625 207.0625 61.1328125 208.125 C61 211 61 211 60.5 212.92578125 C59.75319246 216.02386565 59.86871415 219.00371658 59.875 222.1875 C59.87681274 223.27671753 59.87681274 223.27671753 59.87866211 224.38793945 C59.9310099 232.1797073 60.30027787 239.96183404 60.73193359 247.7409668 C60.99584668 253.16521377 60.94933233 258.40973162 60.49609375 263.82421875 C59.88517179 271.30221284 60.13654151 278.63930178 60.5 286.125 C60.61980903 288.66903011 60.73462349 291.21330178 60.84375 293.7578125 C60.89724609 294.8627002 60.95074219 295.96758789 61.00585938 297.10595703 C61.00072043 299.64416594 60.7609567 301.59686377 60 304 C59.34 304 58.68 304 58 304 C57.67 304.99 57.34 305.98 57 307 C54.890625 308.0625 54.890625 308.0625 52.25 309 C45.58206984 311.16559351 45.58206984 311.16559351 41 316 C39.35 316 37.7 316 36 316 C35.67 316.99 35.34 317.98 35 319 C32.10441559 320.4477922 30.25811062 321 27 321 C27 321.66 27 322.32 27 323 C25.35 323.33 23.7 323.66 22 324 C22 324.66 22 325.32 22 326 C19.04518508 328.74375671 18.22528092 329 14 329 C13.67 329.99 13.34 330.98 13 332 C11.68 332 10.36 332 9 332 C9 332.66 9 333.32 9 334 C5.14243493 336.15305957 2.44870215 337.39253254 -2 337 C-2 337.99 -2 338.98 -2 340 C-2.99 340 -3.98 340 -5 340 C-5.33 340.99 -5.66 341.98 -6 343 C-7.32 343 -8.64 343 -10 343 C-10 343.66 -10 344.32 -10 345 C-11.65 345.33 -13.3 345.66 -15 346 C-15 346.66 -15 347.32 -15 348 C-16.98 348 -18.96 348 -21 348 C-21 348.99 -21 349.98 -21 351 C-23.65228812 352.07525194 -26.28368454 353.09456151 -29 354 C-29 354.66 -29 355.32 -29 356 C-32.41831915 358.5393228 -34.75776898 359.3636198 -39 359 C-39.33 359.99 -39.66 360.98 -40 362 C-41.92578125 363.38671875 -41.92578125 363.38671875 -44.3125 364.6875 C-45.09238281 365.12449219 -45.87226563 365.56148437 -46.67578125 366.01171875 C-49 367 -49 367 -53 367 C-53.33 367.99 -53.66 368.98 -54 370 C-54.66 370 -55.32 370 -56 370 C-56 370.66 -56 371.32 -56 372 C-59.85756507 374.15305957 -62.55129785 375.39253254 -67 375 C-67 375.99 -67 376.98 -67 378 C-68.98 378 -70.96 378 -73 378 C-73 378.66 -73 379.32 -73 380 C-73.66 380 -74.32 380 -75 380 C-75.33 380.99 -75.66 381.98 -76 383 C-77.65 383.33 -79.3 383.66 -81 384 C-81 384.66 -81 385.32 -81 386 C-95.90973945 394.55366005 -95.90973945 394.55366005 -102 394 C-102 394.99 -102 395.98 -102 397 C-107.75 400 -107.75 400 -110 400 C-110 400.66 -110 401.32 -110 402 C-112.95481492 404.74375671 -113.77471908 405 -118 405 C-118.33 405.99 -118.66 406.98 -119 408 C-120.65 408 -122.3 408 -124 408 C-124 408.66 -124 409.32 -124 410 C-125.65 410.33 -127.3 410.66 -129 411 C-129 411.66 -129 412.32 -129 413 C-129.99 413 -130.98 413 -132 413 C-132.33 413.99 -132.66 414.98 -133 416 C-136.23306391 417.61653196 -139.45028204 418.39147692 -143 419 C-143 419.66 -143 420.32 -143 421 C-143.99 421 -144.98 421 -146 421 C-146 421.99 -146 422.98 -146 424 C-147.65 424 -149.3 424 -151 424 C-151 424.66 -151 425.32 -151 426 C-152.98 426.33 -154.96 426.66 -157 427 C-157 427.66 -157 428.32 -157 429 C-158.65 429.33 -160.3 429.66 -162 430 C-162 430.66 -162 431.32 -162 432 C-162.99 432 -163.98 432 -165 432 C-165 432.66 -165 433.32 -165 434 C-166.65 434.33 -168.3 434.66 -170 435 C-170 435.66 -170 436.32 -170 437 C-173.85756507 439.15305957 -176.55129785 440.39253254 -181 440 C-181 440.99 -181 441.98 -181 443 C-181.99 443 -182.98 443 -184 443 C-184 443.66 -184 444.32 -184 445 C-185.65 445.33 -187.3 445.66 -189 446 C-189 446.66 -189 447.32 -189 448 C-192.85756507 450.15305957 -195.55129785 451.39253254 -200 451 C-200 451.99 -200 452.98 -200 454 C-202.88834003 456.10770759 -204.38462395 457 -208 457 C-208 457.66 -208 458.32 -208 459 C-209.32 459 -210.64 459 -212 459 C-212 459.66 -212 460.32 -212 461 C-214.31 461.33 -216.62 461.66 -219 462 C-219 462.99 -219 463.98 -219 465 C-220.65 465 -222.3 465 -224 465 C-224 465.66 -224 466.32 -224 467 C-229.75 470 -229.75 470 -232 470 C-232.33 470.99 -232.66 471.98 -233 473 C-233.99 473 -234.98 473 -236 473 C-236 473.66 -236 474.32 -236 475 C-242.625 478 -242.625 478 -246 478 C-246.33 478.99 -246.66 479.98 -247 481 C-250 482.125 -250 482.125 -253 483 C-253.33 483.33 -253.66 483.66 -254 484 C-255.66617115 484.04063832 -257.33388095 484.042721 -259 484 C-259 484.66 -259 485.32 -259 486 C-265.63146041 489.67550152 -271.9201633 489.44776956 -279.375 489.375 C-280.55578125 489.38660156 -281.7365625 489.39820313 -282.953125 489.41015625 C-289.9576054 489.38675598 -295.49880907 488.63110297 -302 486 C-302 485.34 -302 484.68 -302 484 C-302.70125 483.896875 -303.4025 483.79375 -304.125 483.6875 C-307.39137647 482.90640997 -310.0471852 481.57941257 -313 480 C-313 479.34 -313 478.68 -313 478 C-313.763125 477.896875 -314.52625 477.79375 -315.3125 477.6875 C-318.21655911 476.94460116 -319.28995766 476.43006017 -321 474 C-321 472.68 -321 471.36 -321 470 C-321.99 469.67 -322.98 469.34 -324 469 C-325.74672985 465.5065403 -327 462.93154432 -327 459 C-327.66 459 -328.32 459 -329 459 C-329.33 457.02 -329.66 455.04 -330 453 C-330.66 453 -331.32 453 -332 453 C-332.09087891 451.93458984 -332.09087891 451.93458984 -332.18359375 450.84765625 C-332.26738281 449.92855469 -332.35117187 449.00945312 -332.4375 448.0625 C-332.51871094 447.14597656 -332.59992188 446.22945312 -332.68359375 445.28515625 C-332.76044976 443.03840268 -332.76044976 443.03840268 -334 442 C-334.25060096 439.47799461 -334.42493418 436.98673024 -334.55078125 434.45703125 C-334.59262039 433.63016312 -334.63445953 432.80329498 -334.67756653 431.95137024 C-335.22675175 419.63617215 -335.18714591 407.30475919 -335.18530273 394.97973633 C-335.18519974 391.37004447 -335.19903649 387.76054325 -335.21607494 384.15089703 C-335.22719961 381.33955498 -335.22922207 378.52825977 -335.22869301 375.71689796 C-335.23042948 373.74384221 -335.24123142 371.77080106 -335.25224304 369.79777527 C-335.24916641 368.59824722 -335.24608978 367.39871918 -335.24291992 366.1628418 C-335.24434494 365.11428513 -335.24576996 364.06572845 -335.24723816 362.98539734 C-334.97718758 359.72454036 -334.10328308 357.0692103 -333 354 C-332.64266396 351.10989344 -332.64266396 351.10989344 -332.5859375 348.1640625 C-332.54726563 347.10058594 -332.50859375 346.03710938 -332.46875 344.94140625 C-332.4378125 343.84699219 -332.406875 342.75257813 -332.375 341.625 C-332.33632813 340.50738281 -332.29765625 339.38976562 -332.2578125 338.23828125 C-332.16393445 335.49234839 -332.07825089 332.74641524 -332 330 C-331.34 330 -330.68 330 -330 330 C-330.01160156 329.34773438 -330.02320313 328.69546875 -330.03515625 328.0234375 C-330.08470994 323.2238086 -329.99413751 318.72215315 -329 314 C-328.34 314 -327.68 314 -327 314 C-327.01160156 312.79601562 -327.02320313 311.59203125 -327.03515625 310.3515625 C-327.04453434 308.77604321 -327.05363452 307.20052225 -327.0625 305.625 C-327.07087891 304.8309375 -327.07925781 304.036875 -327.08789062 303.21875 C-327.11328125 297.2265625 -327.11328125 297.2265625 -326 295 C-325.34 295 -324.68 295 -324 295 C-324.01160156 294.22914063 -324.02320313 293.45828125 -324.03515625 292.6640625 C-324.04417969 291.66117188 -324.05320312 290.65828125 -324.0625 289.625 C-324.07990234 288.12839844 -324.07990234 288.12839844 -324.09765625 286.6015625 C-324 284 -324 284 -323 282 C-322.34 282 -321.68 282 -321 282 C-321.01160156 281.14535156 -321.02320313 280.29070312 -321.03515625 279.41015625 C-321.04417969 278.30542969 -321.05320312 277.20070313 -321.0625 276.0625 C-321.07410156 274.96035156 -321.08570313 273.85820313 -321.09765625 272.72265625 C-321 270 -321 270 -320 269 C-319.67599553 267.2975038 -319.39097738 265.58752102 -319.125 263.875 C-318.31275747 259.15537863 -317.09755379 255.29045094 -315 251 C-314.34 251 -313.68 251 -313 251 C-313 248.36 -313 245.72 -313 243 C-312.34 243 -311.68 243 -311 243 C-310.896875 242.030625 -310.79375 241.06125 -310.6875 240.0625 C-310.05370121 235.51406161 -308.55244173 231.30582896 -307 227 C-306.34 227 -305.68 227 -305 227 C-305.04125 225.72125 -305.0825 224.4425 -305.125 223.125 C-305.1953125 220.9453125 -305.1953125 220.9453125 -305 219 C-304.01 218.01 -304.01 218.01 -303 217 C-301.96514123 214.68191636 -300.9644586 212.34824702 -300 210 C-299.67 209.34 -299.34 208.68 -299 208 C-298.34 208 -297.68 208 -297 208 C-297.04125 207.05125 -297.0825 206.1025 -297.125 205.125 C-297 202 -297 202 -295 200 C-294.35232207 197.42938689 -294.35232207 197.42938689 -294 195 C-293.34 195 -292.68 195 -292 195 C-291.896875 194.484375 -291.79375 193.96875 -291.6875 193.4375 C-290.75736134 190.13973565 -289.38604488 187.13366668 -288 184 C-287.34 184 -286.68 184 -286 184 C-286 183.01 -286 182.02 -286 181 C-285.01 181 -284.02 181 -283 181 C-283 179.35 -283 177.7 -283 176 C-282.34 176 -281.68 176 -281 176 C-280.505 173.03 -280.505 173.03 -280 170 C-279.34 170 -278.68 170 -278 170 C-278 168.35 -278 166.7 -278 165 C-277.01 164.67 -276.02 164.34 -275 164 C-274.91621094 163.29488281 -274.83242188 162.58976563 -274.74609375 161.86328125 C-273.82525763 158.32939185 -272.23039169 156.11591788 -270.0625 153.1875 C-269.35222656 152.21167969 -268.64195312 151.23585938 -267.91015625 150.23046875 C-267.27980469 149.49441406 -266.64945312 148.75835937 -266 148 C-265.34 148 -264.68 148 -264 148 C-263.87625 147.4225 -263.7525 146.845 -263.625 146.25 C-262.99351176 143.97664233 -262.11141809 142.0746471 -261 140 C-260.34 140 -259.68 140 -259 140 C-258.87625 139.4225 -258.7525 138.845 -258.625 138.25 C-257.99351176 135.97664233 -257.11141809 134.0746471 -256 132 C-255.01 132 -254.02 132 -253 132 C-253 131.01 -253 130.02 -253 129 C-252.34 129 -251.68 129 -251 129 C-250.896875 128.4225 -250.79375 127.845 -250.6875 127.25 C-249.89103535 124.64338842 -248.80934723 123.0264689 -247 121 C-246.34 121 -245.68 121 -245 121 C-245 120.01 -245 119.02 -245 118 C-244.195625 117.773125 -243.39125 117.54625 -242.5625 117.3125 C-241.716875 116.879375 -240.87125 116.44625 -240 116 C-239.10613836 113.45224694 -239.10613836 113.45224694 -239 111 C-238.34 111 -237.68 111 -237 111 C-237 110.01 -237 109.02 -237 108 C-235.609375 106.5703125 -235.609375 106.5703125 -233.75 105.125 C-230.71303836 102.67088958 -228.43148476 100.0618697 -226 97 C-225.34 97 -224.68 97 -224 97 C-223.505 95.515 -223.505 95.515 -223 94 C-222.34 94 -221.68 94 -221 94 C-220.505 92.515 -220.505 92.515 -220 91 C-219.34 91 -218.68 91 -218 91 C-217.731875 90.360625 -217.46375 89.72125 -217.1875 89.0625 C-216 87 -216 87 -213 86 C-212.505 84.515 -212.505 84.515 -212 83 C-211.34 83 -210.68 83 -210 83 C-209.505 81.515 -209.505 81.515 -209 80 C-208.34 80 -207.68 80 -207 80 C-207 79.34 -207 78.68 -207 78 C-203.89375231 73.98015005 -198.69811753 71.56603918 -194 70 C-194 69.01 -194 68.02 -194 67 C-193.01 67 -192.02 67 -191 67 C-190.67 66.01 -190.34 65.02 -190 64 C-188.68 64 -187.36 64 -186 64 C-185.67 63.01 -185.34 62.02 -185 61 C-184.34 61 -183.68 61 -183 61 C-183 60.34 -183 59.68 -183 59 C-182.01 59 -181.02 59 -180 59 C-180 58.34 -180 57.68 -180 57 C-177.525 56.505 -177.525 56.505 -175 56 C-175 55.01 -175 54.02 -175 53 C-174.01 53 -173.02 53 -172 53 C-172 52.34 -172 51.68 -172 51 C-171.16855469 50.60167969 -171.16855469 50.60167969 -170.3203125 50.1953125 C-169.59585938 49.84210938 -168.87140625 49.48890625 -168.125 49.125 C-167.40570313 48.77695312 -166.68640625 48.42890625 -165.9453125 48.0703125 C-163.84864981 47.03442457 -163.84864981 47.03442457 -162 45 C-161.01 45 -160.02 45 -159 45 C-158.67 44.01 -158.34 43.02 -158 42 C-155.10441559 40.5522078 -153.25811062 40 -150 40 C-150 39.01 -150 38.02 -150 37 C-148.35 37 -146.7 37 -145 37 C-144.67 36.01 -144.34 35.02 -144 34 C-142.68 34 -141.36 34 -140 34 C-140 33.34 -140 32.68 -140 32 C-132.71428571 28.57142857 -132.71428571 28.57142857 -128 29 C-127.67 28.01 -127.34 27.02 -127 26 C-126.01 25.67 -125.02 25.34 -124 25 C-123.67 24.34 -123.34 23.68 -123 23 C-119.24079436 21.06669424 -116.19075475 20.80508117 -112 21 C-111.67 20.01 -111.34 19.02 -111 18 C-109.35430255 17.4626294 -107.70045162 16.94158278 -106.01953125 16.52734375 C-103.98607378 15.99636356 -102.08433552 15.32031915 -100.125 14.5625 C-98.75014687 14.04127909 -97.37514081 13.52046146 -96 13 C-95.25363281 12.71640625 -94.50726563 12.4328125 -93.73828125 12.140625 C-88.92957486 10.40981727 -85.10954074 9.6738591 -80 10 C-80 9.34 -80 8.68 -80 8 C-76.78247471 6.39123735 -73.28159925 6.60409052 -69.7265625 6.37890625 C-67.00700382 6.00097331 -65.38709056 5.28873601 -63 4 C-52.42381795 0.8083711 -40.39022743 0.87034689 -29.4375 1.0625 C-26.13990053 1.24948362 -26.13990053 1.24948362 -24 0 C-4.20779221 -2.1038961 -4.20779221 -2.1038961 0 0 Z " fill="#F97403" transform="translate(529,317)"/>
<path d="M0 0 C1.24330078 -0.01836914 1.24330078 -0.01836914 2.51171875 -0.03710938 C3.70861328 -0.04000977 3.70861328 -0.04000977 4.9296875 -0.04296875 C6.02772705 -0.04913208 6.02772705 -0.04913208 7.14794922 -0.05541992 C9.125 0.1875 9.125 0.1875 12.125 2.1875 C14.11299818 2.88914642 16.11198517 3.56122872 18.125 4.1875 C18.125 4.8475 18.125 5.5075 18.125 6.1875 C19.18267578 6.35572266 19.18267578 6.35572266 20.26171875 6.52734375 C23.39889512 7.25064908 26.02627906 8.38207691 28.9375 9.75 C29.91332031 10.20503906 30.88914062 10.66007813 31.89453125 11.12890625 C32.63058594 11.47824219 33.36664063 11.82757813 34.125 12.1875 C34.125 12.8475 34.125 13.5075 34.125 14.1875 C35.115 14.1875 36.105 14.1875 37.125 14.1875 C37.125 15.1775 37.125 16.1675 37.125 17.1875 C37.888125 17.331875 38.65125 17.47625 39.4375 17.625 C42.125 18.1875 42.125 18.1875 45.125 19.1875 C45.62 20.1775 45.62 20.1775 46.125 21.1875 C47.76863134 21.90909424 49.43550386 22.58101421 51.125 23.1875 C51.125 23.8475 51.125 24.5075 51.125 25.1875 C52.775 25.1875 54.425 25.1875 56.125 25.1875 C56.125 25.8475 56.125 26.5075 56.125 27.1875 C56.8675 27.290625 57.61 27.39375 58.375 27.5 C61.3223519 28.23683797 62.90883074 29.13549142 65.125 31.1875 C65.125 31.8475 65.125 32.5075 65.125 33.1875 C66.775 33.5175 68.425 33.8475 70.125 34.1875 C70.125 34.8475 70.125 35.5075 70.125 36.1875 C70.785 36.27 71.445 36.3525 72.125 36.4375 C76.0791557 37.42603893 79.65672247 39.04008517 83.125 41.1875 C83.455 41.8475 83.785 42.5075 84.125 43.1875 C85.77938613 43.88408363 87.44754318 44.54846883 89.125 45.1875 C90.115 45.8475 91.105 46.5075 92.125 47.1875 C92.125 47.8475 92.125 48.5075 92.125 49.1875 C93.775 49.5175 95.425 49.8475 97.125 50.1875 C97.125 50.8475 97.125 51.5075 97.125 52.1875 C98.775 52.1875 100.425 52.1875 102.125 52.1875 C102.125 53.1775 102.125 54.1675 102.125 55.1875 C104.105 55.1875 106.085 55.1875 108.125 55.1875 C108.125 55.8475 108.125 56.5075 108.125 57.1875 C109.775 57.5175 111.425 57.8475 113.125 58.1875 C113.125 58.8475 113.125 59.5075 113.125 60.1875 C114.115 60.1875 115.105 60.1875 116.125 60.1875 C116.125 61.1775 116.125 62.1675 116.125 63.1875 C117.2696875 63.373125 117.2696875 63.373125 118.4375 63.5625 C121.125 64.1875 121.125 64.1875 124.125 66.1875 C124.125 66.8475 124.125 67.5075 124.125 68.1875 C125.4553125 68.0946875 125.4553125 68.0946875 126.8125 68 C130.48972369 68.20814474 132.22462455 68.96956583 135.125 71.1875 C135.125 71.8475 135.125 72.5075 135.125 73.1875 C136.775 73.5175 138.425 73.8475 140.125 74.1875 C140.125 74.8475 140.125 75.5075 140.125 76.1875 C140.8675 76.290625 141.61 76.39375 142.375 76.5 C145.3223519 77.23683797 146.90883074 78.13549142 149.125 80.1875 C149.125 80.8475 149.125 81.5075 149.125 82.1875 C149.84558594 82.29835938 150.56617188 82.40921875 151.30859375 82.5234375 C154.31736434 83.23285636 156.49960139 84.2962495 159.1875 85.8125 C160.13882813 86.34617187 161.09015625 86.87984375 162.0703125 87.4296875 C166.22578107 89.82094179 170.36903083 92.23190704 174.49609375 94.671875 C176.67618502 95.92874783 178.8594875 97.09491241 181.125 98.1875 C181.125 99.1775 181.125 100.1675 181.125 101.1875 C181.82625 101.125625 182.5275 101.06375 183.25 101 C186.77760212 101.23006101 189.06484351 102.47950568 192.125 104.1875 C192.125 104.8475 192.125 105.5075 192.125 106.1875 C193.115 106.5175 194.105 106.8475 195.125 107.1875 C195.125 107.8475 195.125 108.5075 195.125 109.1875 C196.775 109.1875 198.425 109.1875 200.125 109.1875 C200.125 109.8475 200.125 110.5075 200.125 111.1875 C201.775 111.5175 203.425 111.8475 205.125 112.1875 C205.125 112.8475 205.125 113.5075 205.125 114.1875 C205.82625 114.290625 206.5275 114.39375 207.25 114.5 C210.51637647 115.28109003 213.1721852 116.60808743 216.125 118.1875 C216.125 118.8475 216.125 119.5075 216.125 120.1875 C217.115 120.1875 218.105 120.1875 219.125 120.1875 C219.125 120.8475 219.125 121.5075 219.125 122.1875 C220.775 122.5175 222.425 122.8475 224.125 123.1875 C224.125 123.8475 224.125 124.5075 224.125 125.1875 C224.9603125 125.373125 224.9603125 125.373125 225.8125 125.5625 C228.34614364 126.24726855 230.70421032 127.17883763 233.125 128.1875 C233.125 128.8475 233.125 129.5075 233.125 130.1875 C234.775 130.5175 236.425 130.8475 238.125 131.1875 C238.125 131.8475 238.125 132.5075 238.125 133.1875 C239.775 133.1875 241.425 133.1875 243.125 133.1875 C243.125 134.1775 243.125 135.1675 243.125 136.1875 C244.115 136.1875 245.105 136.1875 246.125 136.1875 C246.125 137.1775 246.125 138.1675 246.125 139.1875 C246.99640625 139.13078125 247.8678125 139.0740625 248.765625 139.015625 C252.54587621 139.2090332 254.59001385 140.10444143 257.875 141.9375 C259.29039062 142.70320313 259.29039062 142.70320313 260.734375 143.484375 C263.26059188 145.28409814 263.8602349 146.45100824 265.125 149.1875 C266.115 149.5175 267.105 149.8475 268.125 150.1875 C268.125 154.1875 268.125 154.1875 266.50488281 155.91918945 C263.49565665 157.52289585 261.44841036 157.53049133 258.046875 157.48046875 C256.88671875 157.47080078 255.7265625 157.46113281 254.53125 157.45117188 C253.3246875 157.42603516 252.118125 157.40089844 250.875 157.375 C249.65296875 157.36146484 248.4309375 157.34792969 247.171875 157.33398438 C244.15580502 157.2986398 241.14062513 157.2492956 238.125 157.1875 C238.125 157.8475 238.125 158.5075 238.125 159.1875 C234.47605683 161.01197159 229.93712742 160.56005487 225.890625 160.70507812 C221.54415079 160.7633595 221.54415079 160.7633595 218.125 163.1875 C215.77734375 163.56640625 215.77734375 163.56640625 213.0625 163.75 C209.78660436 163.72731953 209.78660436 163.72731953 207.125 165.1875 C204.28412448 165.47068854 201.44334785 165.63600213 198.59375 165.80859375 C197.7790625 165.93363281 196.964375 166.05867187 196.125 166.1875 C195.795 166.8475 195.465 167.5075 195.125 168.1875 C192.485 168.1875 189.845 168.1875 187.125 168.1875 C186.795 169.1775 186.465 170.1675 186.125 171.1875 C183.5 172.1875 183.5 172.1875 180.125 173.1875 C178.990625 173.6825 177.85625 174.1775 176.6875 174.6875 C174.15139832 175.75533229 171.8741021 176.5934209 169.25 177.3125 C166.28047637 177.86860322 166.28047637 177.86860322 165.125 179.1875 C163.12541636 179.22830783 161.12454746 179.23004356 159.125 179.1875 C159.125 179.8475 159.125 180.5075 159.125 181.1875 C155.26743493 183.34055957 152.57370215 184.58003254 148.125 184.1875 C148.125 185.1775 148.125 186.1675 148.125 187.1875 C146.475 187.1875 144.825 187.1875 143.125 187.1875 C143.125 187.8475 143.125 188.5075 143.125 189.1875 C140.11468256 190.12173645 139.25849732 190.23199911 136.125 189.1875 C136.125 188.5275 136.125 187.8675 136.125 187.1875 C134.475 187.1875 132.825 187.1875 131.125 187.1875 C130.795 186.1975 130.465 185.2075 130.125 184.1875 C128.26755793 183.57682856 128.26755793 183.57682856 126.125 183.1875 C124.7770257 182.55095658 123.43903276 181.89144612 122.125 181.1875 C122.125 180.5275 122.125 179.8675 122.125 179.1875 C120.475 178.8575 118.825 178.5275 117.125 178.1875 C117.125 177.5275 117.125 176.8675 117.125 176.1875 C116.568125 176.06375 116.01125 175.94 115.4375 175.8125 C112.90385636 175.12773145 110.54578968 174.19616237 108.125 173.1875 C108.125 172.5275 108.125 171.8675 108.125 171.1875 C106.475 170.8575 104.825 170.5275 103.125 170.1875 C103.125 169.5275 103.125 168.8675 103.125 168.1875 C101.475 168.1875 99.825 168.1875 98.125 168.1875 C97.795 167.5275 97.465 166.8675 97.125 166.1875 C95.10036745 165.53536708 95.10036745 165.53536708 93.125 165.1875 C93.125 164.5275 93.125 163.8675 93.125 163.1875 C91.805 162.8575 90.485 162.5275 89.125 162.1875 C89.125 161.5275 89.125 160.8675 89.125 160.1875 C87.475 159.8575 85.825 159.5275 84.125 159.1875 C84.125 158.5275 84.125 157.8675 84.125 157.1875 C83.135 157.1875 82.145 157.1875 81.125 157.1875 C81.125 156.5275 81.125 155.8675 81.125 155.1875 C79.475 154.8575 77.825 154.5275 76.125 154.1875 C76.125 153.5275 76.125 152.8675 76.125 152.1875 C74.475 152.1875 72.825 152.1875 71.125 152.1875 C70.795 151.1975 70.465 150.2075 70.125 149.1875 C67.815 148.8575 65.505 148.5275 63.125 148.1875 C63.125 147.5275 63.125 146.8675 63.125 146.1875 C62.465 146.1875 61.805 146.1875 61.125 146.1875 C61.455 146.8475 61.785 147.5075 62.125 148.1875 C62.57389466 155.31700342 61.92932113 162.44140037 61.24609375 169.53515625 C61.12187092 173.28187717 61.4592465 176.77054412 61.8737793 180.48657227 C62.31175974 185.19539411 62.30930032 189.89907919 62.3125 194.625 C62.32474609 195.60404297 62.33699219 196.58308594 62.34960938 197.59179688 C62.35154297 198.52958984 62.35347656 199.46738281 62.35546875 200.43359375 C62.35957764 201.27591553 62.36368652 202.1182373 62.36791992 202.98608398 C62.125 205.1875 62.125 205.1875 60.125 208.1875 C59.84622601 210.33693335 59.84622601 210.33693335 59.9375 212.625 C59.94394531 213.38683594 59.95039063 214.14867187 59.95703125 214.93359375 C60.05921005 217.20432935 60.05921005 217.20432935 60.69921875 219.41015625 C60.83972656 219.99667969 60.98023438 220.58320313 61.125 221.1875 C60.795 221.5175 60.465 221.8475 60.125 222.1875 C59.91337858 225.78506412 59.87977148 228.5527909 61.1875 231.9375 C63.01193115 238.26219465 62.00619736 246.27346331 59.125 252.1875 C57.125 253.375 57.125 253.375 55.125 254.1875 C54.465 255.1775 53.805 256.1675 53.125 257.1875 C52.465 257.1875 51.805 257.1875 51.125 257.1875 C51.125 258.1775 51.125 259.1675 51.125 260.1875 C50.135 260.1875 49.145 260.1875 48.125 260.1875 C48.125 261.1775 48.125 262.1675 48.125 263.1875 C47.465 263.1875 46.805 263.1875 46.125 263.1875 C45.795 264.1775 45.465 265.1675 45.125 266.1875 C44.465 266.1875 43.805 266.1875 43.125 266.1875 C43.125 266.8475 43.125 267.5075 43.125 268.1875 C42.135 268.1875 41.145 268.1875 40.125 268.1875 C40.125 269.1775 40.125 270.1675 40.125 271.1875 C39.135 271.1875 38.145 271.1875 37.125 271.1875 C37.125 272.1775 37.125 273.1675 37.125 274.1875 C36.465 274.1875 35.805 274.1875 35.125 274.1875 C34.795 275.1775 34.465 276.1675 34.125 277.1875 C33.465 277.1875 32.805 277.1875 32.125 277.1875 C31.795 278.5075 31.465 279.8275 31.125 281.1875 C30.465 281.1875 29.805 281.1875 29.125 281.1875 C28.795 282.5075 28.465 283.8275 28.125 285.1875 C27.465 285.1875 26.805 285.1875 26.125 285.1875 C26.125 285.8475 26.125 286.5075 26.125 287.1875 C25.465 287.1875 24.805 287.1875 24.125 287.1875 C23.795 288.8375 23.465 290.4875 23.125 292.1875 C22.465 292.1875 21.805 292.1875 21.125 292.1875 C21.125 293.1775 21.125 294.1675 21.125 295.1875 C19.75 296.875 19.75 296.875 18.125 298.1875 C17.465 298.1875 16.805 298.1875 16.125 298.1875 C15.9703125 299.05375 15.9703125 299.05375 15.8125 299.9375 C15.01603535 302.54411158 13.93434723 304.1610311 12.125 306.1875 C11.465 306.1875 10.805 306.1875 10.125 306.1875 C10.125 307.1775 10.125 308.1675 10.125 309.1875 C9.465 309.1875 8.805 309.1875 8.125 309.1875 C7.795 310.8375 7.465 312.4875 7.125 314.1875 C6.465 314.1875 5.805 314.1875 5.125 314.1875 C4.939375 315.0228125 4.939375 315.0228125 4.75 315.875 C4.06523145 318.40864364 3.13366237 320.76671032 2.125 323.1875 C1.465 323.1875 0.805 323.1875 0.125 323.1875 C0.125 323.8475 0.125 324.5075 0.125 325.1875 C-0.865 325.1875 -1.855 325.1875 -2.875 325.1875 C-2.978125 325.88875 -3.08125 326.59 -3.1875 327.3125 C-3.96859003 330.57887647 -5.29558743 333.2346852 -6.875 336.1875 C-7.535 336.1875 -8.195 336.1875 -8.875 336.1875 C-8.875 337.8375 -8.875 339.4875 -8.875 341.1875 C-9.535 341.1875 -10.195 341.1875 -10.875 341.1875 C-10.771875 342.074375 -10.66875 342.96125 -10.5625 343.875 C-10.97900768 348.28998143 -12.73420318 349.11649866 -15.875 352.1875 C-18.88188051 357.27015314 -21.13906576 362.54571372 -22.875 368.1875 C-23.205 368.5175 -23.535 368.8475 -23.875 369.1875 C-24.24260731 371.51567964 -24.57741581 373.8493385 -24.875 376.1875 C-25.865 376.5175 -26.855 376.8475 -27.875 377.1875 C-27.771875 378.074375 -27.66875 378.96125 -27.5625 379.875 C-27.875 383.1875 -27.875 383.1875 -30.0625 386.125 C-32.875 388.1875 -32.875 388.1875 -35.6875 388 C-36.409375 387.731875 -37.13125 387.46375 -37.875 387.1875 C-37.875 386.1975 -37.875 385.2075 -37.875 384.1875 C-38.535 384.1875 -39.195 384.1875 -39.875 384.1875 C-40.93615967 381.00402099 -41.00139319 378.75254903 -41.00363445 375.40750885 C-41.0068589 374.19464754 -41.01008335 372.98178622 -41.0134055 371.73217154 C-41.01193424 370.37926822 -41.01036651 369.02636501 -41.00871277 367.67346191 C-41.01058002 366.24170449 -41.01288037 364.80994757 -41.01557809 363.37819147 C-41.02171304 359.43440944 -41.02156051 355.49064856 -41.02038372 351.54686284 C-41.02018014 347.29732639 -41.02569429 343.04779682 -41.03044128 338.79826355 C-41.03875732 330.46970175 -41.04149654 322.14114702 -41.04205366 313.81258142 C-41.04252831 307.04589574 -41.04458045 300.2792124 -41.04775429 293.51252747 C-41.05656292 274.34332536 -41.06117326 255.17412886 -41.06042381 236.00492471 C-41.06038386 234.97092163 -41.0603439 233.93691854 -41.06030273 232.87158203 C-41.06026185 231.83632214 -41.06022097 230.80106225 -41.06017885 229.73443085 C-41.05977217 212.9463027 -41.06934687 196.15819695 -41.0834411 179.37007529 C-41.09778649 162.14744523 -41.10471232 144.92482611 -41.10384732 127.70218992 C-41.10351475 118.02677687 -41.10628821 108.3513873 -41.11702538 98.67597961 C-41.12610618 90.4401583 -41.12832559 82.20437113 -41.12151595 73.96854699 C-41.11823865 69.76367728 -41.11823742 65.55887319 -41.1268692 61.35400963 C-41.13468189 57.50875315 -41.13335691 53.66361487 -41.12458507 49.81836146 C-41.12303847 48.42338628 -41.12490941 47.02840251 -41.13044515 45.63343745 C-41.13744668 43.7448004 -41.1310501 41.85612761 -41.12388897 39.96749115 C-41.12410634 38.91615289 -41.12432371 37.86481463 -41.12454766 36.78161764 C-40.875 34.1875 -40.875 34.1875 -38.875 31.1875 C-38.545 30.1975 -38.215 29.2075 -37.875 28.1875 C-36.875 25.1875 -36.875 25.1875 -34.875 22.1875 C-34.215 22.1875 -33.555 22.1875 -32.875 22.1875 C-32.771875 21.28 -32.66875 20.3725 -32.5625 19.4375 C-31.86850187 16.15678156 -31.17414332 14.57860905 -28.875 12.1875 C-28.215 12.1875 -27.555 12.1875 -26.875 12.1875 C-26.545 11.1975 -26.215 10.2075 -25.875 9.1875 C-22.46017997 6.62638497 -20.12691465 5.82305017 -15.875 6.1875 C-15.875 5.1975 -15.875 4.2075 -15.875 3.1875 C-14.4209375 2.7234375 -14.4209375 2.7234375 -12.9375 2.25 C-8.3052519 0.64289352 -5.12705787 0.00394997 0 0 Z " fill="#F87304" transform="translate(234.875,133.8125)"/>
<path d="M0 0 C0.66 0 1.32 0 2 0 C0.6715234 4.04136566 -0.88035661 6.15040398 -4.125 8.875 C-4.92550781 9.555625 -5.72601563 10.23625 -6.55078125 10.9375 C-7.76314453 11.9584375 -7.76314453 11.9584375 -9 13 C-11.06143647 14.84843341 -13.11925459 16.70079554 -15.17578125 18.5546875 C-17 20 -17 20 -19.1640625 21.06640625 C-21.54176668 22.27549412 -21.8641683 23.65261449 -23 26 C-23.99 26.33 -24.98 26.66 -26 27 C-26.33 27.99 -26.66 28.98 -27 30 C-28.32 29.67 -29.64 29.34 -31 29 C-30.67 28.34 -30.34 27.68 -30 27 C-29.34 27 -28.68 27 -28 27 C-27.731875 26.360625 -27.46375 25.72125 -27.1875 25.0625 C-26 23 -26 23 -23 22 C-22.67 21.01 -22.34 20.02 -22 19 C-21.34 19 -20.68 19 -20 19 C-19.67 18.01 -19.34 17.02 -19 16 C-18.34 16 -17.68 16 -17 16 C-17 15.34 -17 14.68 -17 14 C-13.89375231 9.98015005 -8.69811753 7.56603918 -4 6 C-4 5.01 -4 4.02 -4 3 C-3.01 3 -2.02 3 -1 3 C-0.67 2.01 -0.34 1.02 0 0 Z " fill="#DF620C" transform="translate(339,381)"/>
<path d="M0 0 C0.66 0.33 1.32 0.66 2 1 C3.23525794 7.71335837 3.15923935 14.30217263 2 21 C1.34 21 0.68 21 0 21 C0.66 21.66 1.32 22.32 2 23 C2.57510868 25.32173505 2.9509944 27.64438348 3.33984375 30.00390625 C3.66662109 30.99197266 3.66662109 30.99197266 4 32 C4.99 32.33 5.98 32.66 7 33 C7 33.66 7 34.32 7 35 C5.35 34.67 3.7 34.34 2 34 C2 33.01 2 32.02 2 31 C1.34 31 0.68 31 0 31 C-1.06952974 27.79141077 -1.12922738 25.46164772 -1.1328125 22.08984375 C-1.13410156 20.93548828 -1.13539063 19.78113281 -1.13671875 18.59179688 C-1.13285156 17.38587891 -1.12898437 16.17996094 -1.125 14.9375 C-1.12886719 13.72771484 -1.13273438 12.51792969 -1.13671875 11.27148438 C-1.13542969 10.11841797 -1.13414062 8.96535156 -1.1328125 7.77734375 C-1.13168457 6.71765381 -1.13055664 5.65796387 -1.12939453 4.56616211 C-1 2 -1 2 0 0 Z " fill="#CE7210" transform="translate(195,487)"/>
<path d="M0 0 C0.74886475 0.00523682 1.49772949 0.01047363 2.26928711 0.01586914 C3.07817383 0.0190918 3.88706055 0.02231445 4.72045898 0.02563477 C5.5705957 0.03401367 6.42073242 0.04239258 7.29663086 0.05102539 C8.15063477 0.05553711 9.00463867 0.06004883 9.88452148 0.06469727 C12.00108749 0.07652166 14.11761771 0.0944577 16.23413086 0.11352539 C15.90413086 1.10352539 15.57413086 2.09352539 15.23413086 3.11352539 C11.30546198 3.78223499 7.77872583 4.12651281 3.79663086 3.92602539 C-0.52225725 3.85244978 -3.25537748 5.05458711 -6.96899414 7.15649414 C-9.17789738 8.33297521 -11.29205388 8.80429848 -13.76586914 9.11352539 C-13.76586914 8.12352539 -13.76586914 7.13352539 -13.76586914 6.11352539 C-12.11586914 6.11352539 -10.46586914 6.11352539 -8.76586914 6.11352539 C-8.76586914 5.12352539 -8.76586914 4.13352539 -8.76586914 3.11352539 C-7.31180664 2.64946289 -7.31180664 2.64946289 -5.82836914 2.17602539 C-3.52491868 1.37686911 -2.24683213 0.14444587 0 0 Z " fill="#E06E08" transform="translate(227.765869140625,133.886474609375)"/>
<path d="M0 0 C2 2 2 2 2.24291992 4.43920898 C2.23881104 5.44798096 2.23470215 6.45675293 2.23046875 7.49609375 C2.22853516 8.61306641 2.22660156 9.73003906 2.22460938 10.88085938 C2.21236328 12.05455078 2.20011719 13.22824219 2.1875 14.4375 C2.18685547 15.57638672 2.18621094 16.71527344 2.18554688 17.88867188 C2.10529912 33.50131901 2.10529912 33.50131901 1 39 C0.01 39.495 0.01 39.495 -1 40 C-1 22.625 -1 22.625 -0.78125 17.67578125 C-0.73613281 16.64775391 -0.69101562 15.61972656 -0.64453125 14.56054688 C-0.59683594 13.48869141 -0.54914062 12.41683594 -0.5 11.3125 C-0.45230469 10.22904297 -0.40460937 9.14558594 -0.35546875 8.02929688 C-0.23756308 5.35283825 -0.11904997 2.67640793 0 0 Z " fill="#E9821E" transform="translate(707,597)"/>
<path d="M0 0 C0.99 0.33 1.98 0.66 3 1 C3 1.99 3 2.98 3 4 C2.01 4 1.02 4 0 4 C-0.12375 4.763125 -0.2475 5.52625 -0.375 6.3125 C-1 9 -1 9 -3 12 C-4.875 12.36328125 -4.875 12.36328125 -7 12.3125 C-7.70125 12.30863281 -8.4025 12.30476562 -9.125 12.30078125 C-11 12 -11 12 -13 10 C-13 8.68 -13 7.36 -13 6 C-12.01 6 -11.02 6 -10 6 C-10 6.66 -10 7.32 -10 8 C-7.66928121 8.41870553 -7.66928121 8.41870553 -5 8 C-2.46161323 5.39110249 -1.15259683 3.45779049 0 0 Z M-8 2 C-7.34 2.99 -6.68 3.98 -6 5 C-7.32 5.33 -8.64 5.66 -10 6 C-10 5.01 -10 4.02 -10 3 C-9.34 2.67 -8.68 2.34 -8 2 Z " fill="#E56607" transform="translate(665,873)"/>
<path d="M0 0 C0.66 1.32 1.32 2.64 2 4 C1.57847656 4.60328125 1.15695312 5.2065625 0.72265625 5.828125 C-0.09912109 7.02695312 -0.09912109 7.02695312 -0.9375 8.25 C-1.48277344 9.03890625 -2.02804687 9.8278125 -2.58984375 10.640625 C-3.911313 12.8516151 -4.42417171 14.52917315 -5 17 C-6.9375 19.25 -6.9375 19.25 -9 21 C-9.66 21 -10.32 21 -11 21 C-10.67 19.68 -10.34 18.36 -10 17 C-9.34 17 -8.68 17 -8 17 C-8 15.35 -8 13.7 -8 12 C-7.01 11.67 -6.02 11.34 -5 11 C-4.9175 10.29875 -4.835 9.5975 -4.75 8.875 C-3.82972275 5.34727053 -2.11873023 2.93888386 0 0 Z " fill="#E85306" transform="translate(259,470)"/>
<path d="M0 0 C0.99 0 1.98 0 3 0 C3 0.66 3 1.32 3 2 C3.99 2.33 4.98 2.66 6 3 C6 4.32 6 5.64 6 7 C2.84685215 9.10209857 2.13896919 9.2434761 -1.44921875 9.1953125 C-2.72055664 9.18564453 -2.72055664 9.18564453 -4.01757812 9.17578125 C-4.89865234 9.15902344 -5.77972656 9.14226562 -6.6875 9.125 C-7.58017578 9.11597656 -8.47285156 9.10695313 -9.39257812 9.09765625 C-11.59532314 9.07409748 -13.79752588 9.04120329 -16 9 C-13.06552643 6.06552643 -9.81740544 6.53841577 -5.875 6.375 C-5.12089844 6.33632813 -4.36679687 6.29765625 -3.58984375 6.2578125 C-1.72696816 6.16348969 0.13648255 6.08065338 2 6 C1.34 4.02 0.68 2.04 0 0 Z " fill="#DA811B" transform="translate(497,281)"/>
<path d="M0 0 C0.66 0 1.32 0 2 0 C2 4.95 2 9.9 2 15 C1.01 15 0.02 15 -1 15 C-1 13.35 -1 11.7 -1 10 C-1.99 9.67 -2.98 9.34 -4 9 C-3.52418802 7.68628013 -3.04424851 6.37405454 -2.5625 5.0625 C-2.29566406 4.33160156 -2.02882813 3.60070312 -1.75390625 2.84765625 C-1 1 -1 1 0 0 Z " fill="#EE801D" transform="translate(292,370)"/>
<path d="M0 0 C0.66 0.33 1.32 0.66 2 1 C2.44921875 3.94921875 2.44921875 3.94921875 2.6875 7.6875 C2.77386719 8.90824219 2.86023438 10.12898437 2.94921875 11.38671875 C2.99650108 14.75103834 2.67172666 17.71207479 2 21 C1.01 21 0.02 21 -1 21 C-1.09733092 13.90565767 -1.10087193 7.01805857 0 0 Z " fill="#E77805" transform="translate(195,709)"/>
<path d="M0 0 C0.66 0.33 1.32 0.66 2 1 C1.67 1.886875 1.34 2.77375 1 3.6875 C-0.43065813 8.48267139 -0.0108649 13.25752197 0.22265625 18.20703125 C0.14917969 19.12871094 0.07570312 20.05039062 0 21 C-0.99 21.66 -1.98 22.32 -3 23 C-3.08172936 20.4784979 -3.14083373 17.95970083 -3.1875 15.4375 C-3.21263672 14.73302734 -3.23777344 14.02855469 -3.26367188 13.30273438 C-3.33532304 8.11996685 -2.32172598 4.63735818 0 0 Z " fill="#E57F1E" transform="translate(200,645)"/>
<path d="M0 0 C1.42944945 2.35438733 2.08661261 3.48032433 1.625 6.25 C1.41875 6.8275 1.2125 7.405 1 8 C0.34 8 -0.32 8 -1 8 C-0.50886719 8.79664063 -0.50886719 8.79664063 -0.0078125 9.609375 C1.2642989 12.62694157 1.1959363 14.98693023 1.125 18.25 C1.10695312 19.32765625 1.08890625 20.4053125 1.0703125 21.515625 C1.03550781 22.74539063 1.03550781 22.74539063 1 24 C0.01 23.67 -0.98 23.34 -2 23 C-2.0582253 19.91674642 -2.09367134 16.83363495 -2.125 13.75 C-2.14175781 12.87730469 -2.15851563 12.00460937 -2.17578125 11.10546875 C-2.18222656 10.26113281 -2.18867188 9.41679687 -2.1953125 8.546875 C-2.20578613 7.77182617 -2.21625977 6.99677734 -2.22705078 6.19824219 C-1.97326556 3.74116461 -1.22444152 2.12688458 0 0 Z " fill="#EE7F10" transform="translate(196,435)"/>
<path d="M0 0 C0.66 0 1.32 0 2 0 C2 0.66 2 1.32 2 2 C1.34 2 0.68 2 0 2 C-0.2165625 2.928125 -0.2165625 2.928125 -0.4375 3.875 C-1 6 -1 6 -2 8 C-2.66 8 -3.32 8 -4 8 C-4.226875 8.5775 -4.45375 9.155 -4.6875 9.75 C-6.35981581 12.6168271 -8.27219731 14.13711036 -11 16 C-11.99 16 -12.98 16 -14 16 C-14 15.34 -14 14.68 -14 14 C-12.609375 12.66796875 -12.609375 12.66796875 -10.75 11.1875 C-7.73231709 8.70629405 -5.43204176 6.0625711 -3 3 C-2.34 3 -1.68 3 -1 3 C-0.67 2.01 -0.34 1.02 0 0 Z " fill="#CD560C" transform="translate(306,411)"/>
<path d="M0 0 C0.99 0.33 1.98 0.66 3 1 C3.05784708 5.12494151 3.09354407 9.24977944 3.125 13.375 C3.14175781 14.550625 3.15851562 15.72625 3.17578125 16.9375 C3.18222656 18.05898438 3.18867187 19.18046875 3.1953125 20.3359375 C3.20578613 21.37282715 3.21625977 22.4097168 3.22705078 23.47802734 C3 26 3 26 1 28 C1.00523682 27.42032471 1.01047363 26.84064941 1.01586914 26.2434082 C1.03674334 23.5997833 1.04969327 20.95617579 1.0625 18.3125 C1.07087891 17.40048828 1.07925781 16.48847656 1.08789062 15.54882812 C1.09111328 14.66259766 1.09433594 13.77636719 1.09765625 12.86328125 C1.10289307 12.05157471 1.10812988 11.23986816 1.11352539 10.40356445 C0.99292226 7.85014981 0.51795246 5.49963908 0 3 C0 2.01 0 1.02 0 0 Z " fill="#EA7E1E" transform="translate(706,644)"/>
<path d="M0 0 C0.33 0 0.66 0 1 0 C1 7.92 1 15.84 1 24 C0.01 23.67 -0.98 23.34 -2 23 C-1.86183041 19.35383329 -1.71318466 15.70816926 -1.5625 12.0625 C-1.50352539 10.50112305 -1.50352539 10.50112305 -1.44335938 8.90820312 C-1.40146484 7.91884766 -1.35957031 6.92949219 -1.31640625 5.91015625 C-1.27974854 4.99371338 -1.24309082 4.07727051 -1.20532227 3.13305664 C-1 1 -1 1 0 0 Z " fill="#DB7600" transform="translate(196,246)"/>
<path d="M0 0 C1.65 0 3.3 0 5 0 C5 0.99 5 1.98 5 3 C4.401875 3.268125 3.80375 3.53625 3.1875 3.8125 C0.98790152 4.84729685 0.98790152 4.84729685 -0.3125 6.46875 C-2.4705005 8.42693564 -4.38995598 8.92453345 -7.1875 9.6875 C-8.53908203 10.06455078 -8.53908203 10.06455078 -9.91796875 10.44921875 C-10.60503906 10.63097656 -11.29210937 10.81273437 -12 11 C-12.33 10.34 -12.66 9.68 -13 9 C-11.35 8.67 -9.7 8.34 -8 8 C-8 7.34 -8 6.68 -8 6 C-6.35 5.67 -4.7 5.34 -3 5 C-2.67 4.01 -2.34 3.02 -2 2 C-1.34 2 -0.68 2 0 2 C0 1.34 0 0.68 0 0 Z " fill="#E45E07" transform="translate(311,663)"/>
<path d="M0 0 C0.99 0.33 1.98 0.66 3 1 C3.07427838 4.34252724 3.06546953 6.8035914 2 10 C2.33 10.99 2.66 11.98 3 13 C2.566875 13.4125 2.13375 13.825 1.6875 14.25 C-0.05838272 16.06054505 -1.52619271 17.96474232 -3 20 C-3 18.35 -3 16.7 -3 15 C-2.34 15 -1.68 15 -1 15 C-1.01160156 14.33613281 -1.02320313 13.67226563 -1.03515625 12.98828125 C-1.12478032 4.21792619 -1.12478032 4.21792619 0 0 Z " fill="#E3720E" transform="translate(200,632)"/>
<path d="M0 0 C1.32 0.33 2.64 0.66 4 1 C4 1.99 4 2.98 4 4 C4.66 4 5.32 4 6 4 C6.33 5.32 6.66 6.64 7 8 C7.66 8 8.32 8 9 8 C10.76462683 11.08809695 11 12.23312136 11 16 C10.34 16 9.68 16 9 16 C8.67 14.35 8.34 12.7 8 11 C7.34 11 6.68 11 6 11 C6 10.01 6 9.02 6 8 C5.01 7.67 4.02 7.34 3 7 C0 2.66666667 0 2.66666667 0 0 Z " fill="#EC5905" transform="translate(614,817)"/>
<path d="M0 0 C0.33 0 0.66 0 1 0 C1 7.92 1 15.84 1 24 C-2 21 -2 21 -2.36328125 18.65234375 C-2.24314193 12.22951063 -1.51728869 6.24526861 0 0 Z " fill="#EC8120" transform="translate(708,553)"/>
<path d="M0 0 C-0.21875 1.8359375 -0.21875 1.8359375 -1 4 C-3.03125 5.4140625 -3.03125 5.4140625 -5.5 6.625 C-8.90839542 8.13502598 -8.90839542 8.13502598 -11 11 C-11.99 10.67 -12.98 10.34 -14 10 C-13.67 9.34 -13.34 8.68 -13 8 C-12.34 8 -11.68 8 -11 8 C-10.67 7.01 -10.34 6.02 -10 5 C-9.34 5 -8.68 5 -8 5 C-8 4.34 -8 3.68 -8 3 C-7.01 3 -6.02 3 -5 3 C-5 2.34 -5 1.68 -5 1 C-3 0 -3 0 0 0 Z " fill="#F26B0E" transform="translate(354,373)"/>
<path d="M0 0 C3.16115776 1.36983503 3.9927092 1.9890638 6 5 C6.125 8.1875 6.125 8.1875 6 11 C5.34 11 4.68 11 4 11 C4.66 13.97 5.32 16.94 6 20 C5.34 20 4.68 20 4 20 C2.49843126 16.99686252 2.90718796 14.20932478 2.9375 10.875 C2.94652344 9.59367187 2.95554687 8.31234375 2.96484375 6.9921875 C2.97644531 6.00476563 2.98804688 5.01734375 3 4 C2.34 4 1.68 4 1 4 C0.67 2.68 0.34 1.36 0 0 Z " fill="#D55A07" transform="translate(603,488)"/>
<path d="M0 0 C0.66 0 1.32 0 2 0 C3.06723961 3.46222615 3.10173486 6.64039266 3.0625 10.25 C3.05347656 11.32765625 3.04445313 12.4053125 3.03515625 13.515625 C3.02355469 14.33546875 3.01195312 15.1553125 3 16 C2.34 16 1.68 16 1 16 C0.67 16.66 0.34 17.32 0 18 C0.01740234 17.03900391 0.01740234 17.03900391 0.03515625 16.05859375 C0.07790517 11.96080435 0.09606802 7.99022628 -0.5625 3.9375 C-0.706875 2.968125 -0.85125 1.99875 -1 1 C-0.67 0.67 -0.34 0.34 0 0 Z " fill="#F15E0F" transform="translate(587,512)"/>
<path d="M0 0 C0.99 0.33 1.98 0.66 3 1 C-0.49362423 4.71197575 -4.17590211 7.70990019 -8.328125 10.66796875 C-10.1321474 11.91356882 -10.1321474 11.91356882 -11 14 C-11.66 14 -12.32 14 -13 14 C-11.63088196 10.8510285 -10.1247864 8.9521513 -7.5 6.75 C-6.58734375 5.96882813 -6.58734375 5.96882813 -5.65625 5.171875 C-4 4 -4 4 -2 4 C-2 3.01 -2 2.02 -2 1 C-1.34 0.67 -0.68 0.34 0 0 Z " fill="#ED760A" transform="translate(389,459)"/>
<path d="M0 0 C0.33 0.66 0.66 1.32 1 2 C-1.88406243 5.40843742 -3.3708265 6.86591384 -7.8125 7.8125 C-9.3903125 7.9053125 -9.3903125 7.9053125 -11 8 C-11 8.66 -11 9.32 -11 10 C-11.99 10 -12.98 10 -14 10 C-14 9.34 -14 8.68 -14 8 C-12.35 7.67 -10.7 7.34 -9 7 C-9 6.34 -9 5.68 -9 5 C-6.03 3.35 -3.06 1.7 0 0 Z " fill="#EB5605" transform="translate(466,574)"/>
<path d="M0 0 C2.71907537 5.43815074 3.44314039 9.9068197 3 16 C2.01 17.32 1.02 18.64 0 20 C0 13.4 0 6.8 0 0 Z " fill="#FF3500" transform="translate(194,222)"/>
<path d="M0 0 C-1 3 -1 3 -2.6875 4 C-3.450625 4.33 -4.21375 4.66 -5 5 C-5.969375 5.53625 -6.93875 6.0725 -7.9375 6.625 C-10.97317175 7.98795467 -12.73230026 8.28832645 -16 8 C-15.67 7.34 -15.34 6.68 -15 6 C-13.68 6 -12.36 6 -11 6 C-10.67 5.01 -10.34 4.02 -10 3 C-8.35 3 -6.7 3 -5 3 C-5 2.34 -5 1.68 -5 1 C-3 0 -3 0 0 0 Z " fill="#DD5C08" transform="translate(354,641)"/>
<path d="M0 0 C0.99 0.66 1.98 1.32 3 2 C2.525625 2.7425 2.05125 3.485 1.5625 4.25 C-0.04188529 6.78732859 -0.04188529 6.78732859 -0.5 9 C-1.17157018 11.68628071 -2.47277486 13.70916229 -4 16 C-4.33 16 -4.66 16 -5 16 C-5.125 13.125 -5.125 13.125 -5 10 C-4.34 9.34 -3.68 8.68 -3 8 C-2.35232207 5.42938689 -2.35232207 5.42938689 -2 3 C-1.34 3 -0.68 3 0 3 C0 2.01 0 1.02 0 0 Z " fill="#CE630E" transform="translate(237,509)"/>
<path d="M0 0 C3.48849015 2.93867376 3.70062541 5.69777608 4.375 10.0390625 C4.58125 10.68617188 4.7875 11.33328125 5 12 C5.99 12.33 6.98 12.66 8 13 C8 13.66 8 14.32 8 15 C6.35 14.67 4.7 14.34 3 14 C3 13.01 3 12.02 3 11 C2.34 11 1.68 11 1 11 C-0.28317892 7.15046324 -0.06643637 4.05261865 0 0 Z " fill="#AD6008" transform="translate(194,507)"/>
<path d="M0 0 C4.90196671 -0.47438388 9.59628383 0.89763648 14 3 C14.99 4.485 14.99 4.485 16 6 C15.67 6.99 15.34 7.98 15 9 C14.67 8.01 14.34 7.02 14 6 C12.35 5.67 10.7 5.34 9 5 C9 4.34 9 3.68 9 3 C6.36 3 3.72 3 1 3 C0.67 2.01 0.34 1.02 0 0 Z " fill="#D1620A" transform="translate(538,418)"/>
<path d="M0 0 C1.1875 1.625 1.1875 1.625 2 4 C0.625 7.25 0.625 7.25 -1 10 C-1.66 10 -2.32 10 -3 10 C-3.33 11.98 -3.66 13.96 -4 16 C-5.0625 14.1875 -5.0625 14.1875 -6 12 C-5.67 11.01 -5.34 10.02 -5 9 C-4.34 9 -3.68 9 -3 9 C-3 7.68 -3 6.36 -3 5 C-2.34 5 -1.68 5 -1 5 C-0.67 3.35 -0.34 1.7 0 0 Z " fill="#E2630C" transform="translate(327,549)"/>
<path d="M0 0 C2.3125 -0.3984375 2.3125 -0.3984375 5 -0.375 C6.3303125 -0.38660156 6.3303125 -0.38660156 7.6875 -0.3984375 C8.8321875 -0.20121094 8.8321875 -0.20121094 10 0 C10.66 0.99 11.32 1.98 12 3 C7.38 3 2.76 3 -2 3 C-1.34 2.01 -0.68 1.02 0 0 Z " fill="#E75C07" transform="translate(459,291)"/>
<path d="M0 0 C-0.33 0.99 -0.66 1.98 -1 3 C-5.62 3 -10.24 3 -15 3 C-9.97583178 -0.34944548 -5.90048743 -0.09834146 0 0 Z " fill="#E46F0B" transform="translate(264,803)"/>
<path d="M0 0 C2 1 2 1 2.73828125 2.75 C3.07710398 5.66286408 2.3439267 7.31937839 1.1875 10 C0.83042969 10.845625 0.47335938 11.69125 0.10546875 12.5625 C-0.87856892 14.73225091 -1.93452835 16.86905671 -3 19 C-3 15.7 -3 12.4 -3 9 C-2.01 8.67 -1.02 8.34 0 8 C0 5.36 0 2.72 0 0 Z " fill="#DA6410" transform="translate(216,560)"/>
<path d="M0 0 C0.99 0 1.98 0 3 0 C3 5.61 3 11.22 3 17 C2.34 16.67 1.68 16.34 1 16 C0.68758545 13.28553021 0.48663408 10.66090639 0.375 7.9375 C0.33632812 7.17888672 0.29765625 6.42027344 0.2578125 5.63867188 C0.16326438 3.75952805 0.08053244 1.87979664 0 0 Z " fill="#DE7A00" transform="translate(194,343)"/>
<path d="M0 0 C3.3 0 6.6 0 10 0 C10 0.66 10 1.32 10 2 C12.64 2 15.28 2 18 2 C14.54171423 4.30552385 13.5726559 4.187942 9.5625 3.8125 C8.61503906 3.73644531 7.66757812 3.66039062 6.69140625 3.58203125 C4 3 4 3 0 0 Z " fill="#EE7D10" transform="translate(511,413)"/>
<path d="M0 0 C4.81033104 2.54664585 8.32442148 4.99027798 12 9 C11.01 9.33 10.02 9.66 9 10 C9 9.34 9 8.68 9 8 C8.443125 7.9175 7.88625 7.835 7.3125 7.75 C4.23811154 6.75290104 2.33757048 5.20770546 0 3 C0 2.01 0 1.02 0 0 Z " fill="#E15707" transform="translate(567,432)"/>
<path d="M0 0 C0.99 0.33 1.98 0.66 3 1 C3 4.3 3 7.6 3 11 C2.34 11 1.68 11 1 11 C0.67 11.66 0.34 12.32 0 13 C0 8.71 0 4.42 0 0 Z " fill="#EC7910" transform="translate(798,471)"/>
<path d="M0 0 C0.74609375 1.640625 0.74609375 1.640625 1 4 C-0.65234375 6.796875 -0.65234375 6.796875 -2.9375 9.75 C-4.06478516 11.22726562 -4.06478516 11.22726562 -5.21484375 12.734375 C-5.80394531 13.48203125 -6.39304687 14.2296875 -7 15 C-7.66 14.67 -8.32 14.34 -9 14 C-7.625 11.5 -7.625 11.5 -6 9 C-5.34 9 -4.68 9 -4 9 C-3.71125 8.2575 -3.4225 7.515 -3.125 6.75 C-2.17697356 4.43260203 -1.15154089 2.22082885 0 0 Z " fill="#EE730B" transform="translate(288,375)"/>
<path d="M0 0 C0.99 0.495 0.99 0.495 2 1 C1.67 1.99 1.34 2.98 1 4 C1.66 4 2.32 4 3 4 C3 5.65 3 7.3 3 9 C2.34 9 1.68 9 1 9 C1 12.63 1 16.26 1 20 C0.67 20 0.34 20 0 20 C0 13.4 0 6.8 0 0 Z " fill="#DA3C00" transform="translate(194,168)"/>
<path d="M0 0 C0.66 0 1.32 0 2 0 C1.67 1.65 1.34 3.3 1 5 C0.34 5 -0.32 5 -1 5 C-1.33 5.99 -1.66 6.98 -2 8 C-3.32 7.67 -4.64 7.34 -6 7 C-5.67 6.34 -5.34 5.68 -5 5 C-4.34 5 -3.68 5 -3 5 C-2.5359375 4.0409375 -2.5359375 4.0409375 -2.0625 3.0625 C-1 1 -1 1 0 0 Z " fill="#D54D07" transform="translate(314,403)"/>
<path d="M0 0 C0.66 0.33 1.32 0.66 2 1 C1.67 2.98 1.34 4.96 1 7 C0.01 7 -0.98 7 -2 7 C-2 7.99 -2 8.98 -2 10 C-2.99 9.67 -3.98 9.34 -5 9 C-5 8.34 -5 7.68 -5 7 C-4.34 6.67 -3.68 6.34 -3 6 C-1.95191959 4.02477154 -0.9479589 2.02518491 0 0 Z " fill="#E87E17" transform="translate(285,387)"/>
<path d="M0 0 C2.25 0.25 2.25 0.25 4 1 C4 1.66 4 2.32 4 3 C3.34 3 2.68 3 2 3 C2 3.99 2 4.98 2 6 C0.02 6 -1.96 6 -4 6 C-4 4 -4 4 -2.25 1.8125 C-1.5075 1.214375 -0.765 0.61625 0 0 Z " fill="#E5810C" transform="translate(346,754)"/>
<path d="M0 0 C0 0.66 0 1.32 0 2 C-2.24864792 3.12432396 -3.94387663 3.30453896 -6.4375 3.5625 C-7.21996094 3.64628906 -8.00242187 3.73007812 -8.80859375 3.81640625 C-11 4 -11 4 -14 4 C-11.68516093 1.68516093 -10.10977477 1.2391044 -7 0.3125 C-6.113125 0.04050781 -5.22625 -0.23148437 -4.3125 -0.51171875 C-2 -1 -2 -1 0 0 Z " fill="#E44D04" transform="translate(438,330)"/>
<path d="M0 0 C0.33 0 0.66 0 1 0 C1.36923077 6.52307692 1.36923077 6.52307692 -0.5 8.9375 C-0.995 9.288125 -1.49 9.63875 -2 10 C-2.99 9.67 -3.98 9.34 -5 9 C-4.67 8.34 -4.34 7.68 -4 7 C-3.34 7 -2.68 7 -2 7 C-1.855625 6.030625 -1.71125 5.06125 -1.5625 4.0625 C-1 1 -1 1 0 0 Z " fill="#E75706" transform="translate(204,149)"/>
<path d="M0 0 C0.99 0.33 1.98 0.66 3 1 C2.71125 1.53625 2.4225 2.0725 2.125 2.625 C0.83288192 5.35280484 -0.08558592 8.12612718 -1 11 C-1.66 11 -2.32 11 -3 11 C-3 9.35 -3 7.7 -3 6 C-2.34 6 -1.68 6 -1 6 C-0.67 4.02 -0.34 2.04 0 0 Z " fill="#CE7407" transform="translate(210,498)"/>
<path d="M0 0 C0.99 0 1.98 0 3 0 C2.45912682 3.78611227 0.88277668 5.55400767 -2 8 C-2.66 8 -3.32 8 -4 8 C-3.67 6.68 -3.34 5.36 -3 4 C-2.34 4 -1.68 4 -1 4 C-0.67 2.68 -0.34 1.36 0 0 Z " fill="#E2690D" transform="translate(252,483)"/>
<path d="M0 0 C2.24606427 1.77444972 2.95081002 2.58352485 3.29296875 5.48046875 C3.25816406 6.37378906 3.22335937 7.26710938 3.1875 8.1875 C3.16042969 9.08855469 3.13335937 9.98960937 3.10546875 10.91796875 C3.07066406 11.60503906 3.03585937 12.29210937 3 13 C0.41073669 10.41073669 0.62601957 8.97294721 0.375 5.375 C0.30023438 4.37210937 0.22546875 3.36921875 0.1484375 2.3359375 C0.09945313 1.56507813 0.05046875 0.79421875 0 0 Z " fill="#F79F06" transform="translate(293,307)"/>
<path d="M0 0 C0 1.65 0 3.3 0 5 C-0.66 5 -1.32 5 -2 5 C-2 5.99 -2 6.98 -2 8 C-2.99 8 -3.98 8 -5 8 C-5.25 5.6875 -5.25 5.6875 -5 3 C-1.79310345 0 -1.79310345 0 0 0 Z " fill="#ED7614" transform="translate(768,703)"/>
<path d="M0 0 C1.32 0 2.64 0 4 0 C4 1.32 4 2.64 4 4 C2.35 4.66 0.7 5.32 -1 6 C-1.33 4.68 -1.66 3.36 -2 2 C-1.34 2 -0.68 2 0 2 C0 1.34 0 0.68 0 0 Z " fill="#D76D11" transform="translate(547,693)"/>
<path d="M0 0 C0.99 0 1.98 0 3 0 C3.33 0.99 3.66 1.98 4 3 C0.86501708 4.85776765 -1.37471432 5.20140476 -5 5 C-5 4.01 -5 3.02 -5 2 C-3.35 2 -1.7 2 0 2 C0 1.34 0 0.68 0 0 Z " fill="#F4700D" transform="translate(467,687)"/>
<path d="M0 0 C0.66 0 1.32 0 2 0 C2.05395478 1.62463842 2.09277195 3.24978541 2.125 4.875 C2.14820313 5.77992188 2.17140625 6.68484375 2.1953125 7.6171875 C2 10 2 10 0 12 C-1.29449495 8.11651516 -1.13203312 5.09302664 -1 1 C-0.67 0.67 -0.34 0.34 0 0 Z " fill="#E27F11" transform="translate(707,677)"/>
<path d="M0 0 C0.66 0 1.32 0 2 0 C1.4359146 3.94859783 0.2568294 6.70879046 -2 10 C-2.33 10 -2.66 10 -3 10 C-3.3636198 5.75776898 -2.5393228 3.41831915 0 0 Z " fill="#DF6B0D" transform="translate(230,525)"/>
<path d="M0 0 C0.99 0 1.98 0 3 0 C3 3.3 3 6.6 3 10 C2.34 10 1.68 10 1 10 C0.67 6.7 0.34 3.4 0 0 Z " fill="#FF5000" transform="translate(194,284)"/>
<path d="M0 0 C0.66 0 1.32 0 2 0 C2 2.97 2 5.94 2 9 C1.01 9 0.02 9 -1 9 C-1.125 2.25 -1.125 2.25 0 0 Z " fill="#C77E00" transform="translate(195,199)"/>
<path d="M0 0 C1.97986082 0.11347619 3.95891598 0.2410935 5.9375 0.375 C7.03964844 0.44460938 8.14179688 0.51421875 9.27734375 0.5859375 C10.62505859 0.79089844 10.62505859 0.79089844 12 1 C12.33 1.66 12.66 2.32 13 3 C11.20906809 3.08086147 9.41710372 3.13912702 7.625 3.1875 C6.12839844 3.23970703 6.12839844 3.23970703 4.6015625 3.29296875 C3.74304688 3.19628906 2.88453125 3.09960938 2 3 C1.34 2.01 0.68 1.02 0 0 Z " fill="#E16C0B" transform="translate(234,803)"/>
<path d="M0 0 C1.98 0 3.96 0 6 0 C6 0.33 6 0.66 6 1 C4.35 1 2.7 1 1 1 C1 1.66 1 2.32 1 3 C-1.8125 4.5625 -1.8125 4.5625 -5 6 C-5.99 5.67 -6.98 5.34 -8 5 C-7.67 4.34 -7.34 3.68 -7 3 C-5.68 3 -4.36 3 -3 3 C-2.67 2.34 -2.34 1.68 -2 1 C-1.34 1.33 -0.68 1.66 0 2 C0 1.34 0 0.68 0 0 Z " fill="#DE6304" transform="translate(304,781)"/>
<path d="M0 0 C0.66 0 1.32 0 2 0 C3.35439668 2.70879335 3.06501451 5.00933268 3 8 C2.01 8.33 1.02 8.66 0 9 C0 6.03 0 3.06 0 0 Z " fill="#C25A0B" transform="translate(771,691)"/>
<path d="M0 0 C0.66 0.66 1.32 1.32 2 2 C1.2575 3.0828125 1.2575 3.0828125 0.5 4.1875 C-1.07919285 7.14848659 -1.28178312 8.71253029 -1 12 C-1.99 12.495 -1.99 12.495 -3 13 C-3 10.03 -3 7.06 -3 4 C-2.34 3.67 -1.68 3.34 -1 3 C-0.67 2.01 -0.34 1.02 0 0 Z " fill="#EB750D" transform="translate(306,586)"/>
<path d="M0 0 C0.99 0 1.98 0 3 0 C3 1.65 3 3.3 3 5 C2.34 5 1.68 5 1 5 C0.87625 5.639375 0.7525 6.27875 0.625 6.9375 C0.41875 7.618125 0.2125 8.29875 0 9 C-0.99 9.495 -0.99 9.495 -2 10 C-1.34 6.7 -0.68 3.4 0 0 Z " fill="#ED730E" transform="translate(223,470)"/>
<path d="M0 0 C0.99 0 1.98 0 3 0 C3 1.98 3 3.96 3 6 C2.34 6 1.68 6 1 6 C1 8.64 1 11.28 1 14 C0.67 14 0.34 14 0 14 C0 9.38 0 4.76 0 0 Z " fill="#F43600" transform="translate(194,374)"/>
<path d="M0 0 C0.99 0 1.98 0 3 0 C3 0.66 3 1.32 3 2 C3.99 2.33 4.98 2.66 6 3 C6 4.32 6 5.64 6 7 C4.68 7.33 3.36 7.66 2 8 C1.855625 7.05125 1.71125 6.1025 1.5625 5.125 C1.17064601 2.1065506 1.17064601 2.1065506 0 0 Z " fill="#C67311" transform="translate(497,281)"/>
<path d="M0 0 C1.32 0 2.64 0 4 0 C4.33 0.66 4.66 1.32 5 2 C6.64363134 2.72159424 8.31050386 3.39351421 10 4 C10 4.66 10 5.32 10 6 C9.01 6 8.02 6 7 6 C7 5.34 7 4.68 7 4 C4.69 3.67 2.38 3.34 0 3 C0 2.01 0 1.02 0 0 Z " fill="#E37711" transform="translate(314,175)"/>
<path d="M0 0 C0.66 0.99 1.32 1.98 2 3 C0.68 3.33 -0.64 3.66 -2 4 C-2 3.01 -2 2.02 -2 1 C-1.34 0.67 -0.68 0.34 0 0 Z M-5 4 C-4.01 4.33 -3.02 4.66 -2 5 C-2 6.66666667 -2 8.33333333 -2 10 C-2.99 9.34 -3.98 8.68 -5 8 C-5 6.68 -5 5.36 -5 4 Z " fill="#D3700E" transform="translate(657,875)"/>
<path d="M0 0 C1.65 0 3.3 0 5 0 C4.01 1.485 4.01 1.485 3 3 C1.68 2.67 0.36 2.34 -1 2 C-0.67 1.34 -0.34 0.68 0 0 Z M-4 3 C-3.01 3.33 -2.02 3.66 -1 4 C-1.99 4 -2.98 4 -4 4 C-4 3.67 -4 3.34 -4 3 Z M-8 6 C-4 7 -4 7 -4 7 Z " fill="#EF750D" transform="translate(483,571)"/>
<path d="M0 0 C0.99 0.33 1.98 0.66 3 1 C1.1875 3.5 1.1875 3.5 -1 6 C-1.99 6 -2.98 6 -4 6 C-4.33 5.01 -4.66 4.02 -5 3 C-2.6875 1.4375 -2.6875 1.4375 0 0 Z " fill="#F1770B" transform="translate(721,543)"/>
<path d="M0 0 C1.32 0 2.64 0 4 0 C3.67 0.99 3.34 1.98 3 3 C1.02 3.33 -0.96 3.66 -3 4 C-3 4.66 -3 5.32 -3 6 C-3.99 5.67 -4.98 5.34 -6 5 C-5.34 4.34 -4.68 3.68 -4 3 C-3.01 3 -2.02 3 -1 3 C-0.67 2.01 -0.34 1.02 0 0 Z " fill="#D65A07" transform="translate(566,516)"/>
<path d="M0 0 C0.66 0 1.32 0 2 0 C1.25 4.75 1.25 4.75 -1 7 C-1.99 7 -2.98 7 -4 7 C-2.79618552 4.50638429 -1.54571278 2.31856917 0 0 Z " fill="#D45604" transform="translate(282,438)"/>
<path d="M0 0 C0.66 0 1.32 0 2 0 C2 0.66 2 1.32 2 2 C1.34 2 0.68 2 0 2 C-0.2165625 2.928125 -0.2165625 2.928125 -0.4375 3.875 C-1 6 -1 6 -2 8 C-3.32 8 -4.64 8 -6 8 C-6 6 -6 6 -4.625 4.375 C-3 3 -3 3 -1 3 C-0.67 2.01 -0.34 1.02 0 0 Z " fill="#D65E07" transform="translate(306,411)"/>
<path d="M0 0 C0.99 0.33 1.98 0.66 3 1 C2.67 2.65 2.34 4.3 2 6 C0.68 6.33 -0.64 6.66 -2 7 C-2.33 6.34 -2.66 5.68 -3 5 C-1.5625 2.375 -1.5625 2.375 0 0 Z " fill="#EA880D" transform="translate(684,840)"/>
<path d="M0 0 C0.66 0.66 1.32 1.32 2 2 C1.34 3.32 0.68 4.64 0 6 C-1.65 6 -3.3 6 -5 6 C-5.33 5.01 -5.66 4.02 -6 3 C-5.195625 2.87625 -4.39125 2.7525 -3.5625 2.625 C-2.716875 2.41875 -1.87125 2.2125 -1 2 C-0.67 1.34 -0.34 0.68 0 0 Z " fill="#F07E0A" transform="translate(383,735)"/>
<path d="M0 0 C2.5 1.3125 2.5 1.3125 5 3 C5 3.99 5 4.98 5 6 C3.35 5.67 1.7 5.34 0 5 C-0.5625 3.0625 -0.5625 3.0625 -1 1 C-0.67 0.67 -0.34 0.34 0 0 Z " fill="#E26F10" transform="translate(547,700)"/>
<path d="M0 0 C0.99 0 1.98 0 3 0 C3 3.3 3 6.6 3 10 C2.34 10 1.68 10 1 10 C0.67 6.7 0.34 3.4 0 0 Z " fill="#C26500" transform="translate(194,677)"/>
<path d="M0 0 C0.99 0.33 1.98 0.66 3 1 C1.02 5.455 1.02 5.455 -1 10 C-1.66 9.67 -2.32 9.34 -3 9 C-3 8.34 -3 7.68 -3 7 C-2.34 7 -1.68 7 -1 7 C-1.020625 6.030625 -1.04125 5.06125 -1.0625 4.0625 C-1 1 -1 1 0 0 Z " fill="#DF7D04" transform="translate(316,573)"/>
<path d="M0 0 C0.66 0 1.32 0 2 0 C0.125 4.875 0.125 4.875 -1 6 C-2.66617115 6.04063832 -4.33388095 6.042721 -6 6 C-5.34 5.01 -4.68 4.02 -4 3 C-3.01 3 -2.02 3 -1 3 C-0.67 2.01 -0.34 1.02 0 0 Z " fill="#D85404" transform="translate(371,359)"/>
<path d="M0 0 C0.33 0 0.66 0 1 0 C1 3.63 1 7.26 1 11 C0.34 11 -0.32 11 -1 11 C-0.67 9.35 -0.34 7.7 0 6 C-0.66 6 -1.32 6 -2 6 C-2 4.68 -2 3.36 -2 2 C-1.34 2 -0.68 2 0 2 C0 1.34 0 0.68 0 0 Z " fill="#D78300" transform="translate(196,209)"/>
<path d="M0 0 C2.3125 0.1875 2.3125 0.1875 4 1 C2.02579865 3.52259061 1.03254358 3.9929808 -2.1875 4.6875 C-3.5796875 4.8421875 -3.5796875 4.8421875 -5 5 C-2.75 2.4375 -2.75 2.4375 0 0 Z " fill="#F1730C" transform="translate(311,769)"/>
<path d="M0 0 C-0.33 0.99 -0.66 1.98 -1 3 C-1.66 3 -2.32 3 -3 3 C-3 3.66 -3 4.32 -3 5 C-4.98 5 -6.96 5 -9 5 C-7.16182974 1.32365947 -3.97378668 0 0 0 Z " fill="#ED7A0D" transform="translate(408,722)"/>
<path d="M0 0 C0.99 0.33 1.98 0.66 3 1 C3 1.99 3 2.98 3 4 C2.34 4 1.68 4 1 4 C0.67 6.64 0.34 9.28 0 12 C-0.33 12 -0.66 12 -1 12 C-1.08159574 7.83861737 -0.98248524 4.0527516 0 0 Z " fill="#D34B02" transform="translate(200,632)"/>
<path d="M0 0 C0.33 0 0.66 0 1 0 C1.08090971 1.62418745 1.13914995 3.24951745 1.1875 4.875 C1.22230469 5.77992188 1.25710938 6.68484375 1.29296875 7.6171875 C1.19628906 8.40351562 1.09960938 9.18984375 1 10 C0.01 10.66 -0.98 11.32 -2 12 C-2 10.02 -2 8.04 -2 6 C-1.34 6 -0.68 6 0 6 C0 4.02 0 2.04 0 0 Z " fill="#E65308" transform="translate(304,612)"/>
<path d="M0 0 C0.99 0 1.98 0 3 0 C2.67 1.32 2.34 2.64 2 4 C0.02 4.33 -1.96 4.66 -4 5 C-3.67 4.01 -3.34 3.02 -3 2 C-2.01 2 -1.02 2 0 2 C0 1.34 0 0.68 0 0 Z " fill="#BD4E06" transform="translate(485,563)"/>
<path d="M0 0 C1.98 0 3.96 0 6 0 C5.01 0.495 5.01 0.495 4 1 C4 1.66 4 2.32 4 3 C2.68 3.33 1.36 3.66 0 4 C0 4.66 0 5.32 0 6 C-0.66 6 -1.32 6 -2 6 C-1.34 4.02 -0.68 2.04 0 0 Z " fill="#EC680A" transform="translate(541,530)"/>
<path d="M0 0 C0.66 0.33 1.32 0.66 2 1 C2.36923077 5.55384615 2.36923077 5.55384615 0.5 7.8125 C0.005 8.204375 -0.49 8.59625 -1 9 C-1.66 8.67 -2.32 8.34 -3 8 C-1.125 2.25 -1.125 2.25 0 0 Z " fill="#EA7E10" transform="translate(343,518)"/>
<path d="M0 0 C0.33 0.99 0.66 1.98 1 3 C-1.64738916 4.4606285 -2.89448334 5 -6 5 C-5.6875 3.0625 -5.6875 3.0625 -5 1 C-2 0 -2 0 0 0 Z " fill="#DE7008" transform="translate(591,447)"/>
<path d="M0 0 C-1.12672879 3.38018638 -2.48086363 4.5572011 -5 7 C-5.99 8.485 -5.99 8.485 -7 10 C-7.66 9.67 -8.32 9.34 -9 9 C-3.2 0 -3.2 0 0 0 Z " fill="#EE710B" transform="translate(299,431)"/>
<path d="M0 0 C-3.6678852 1.96189209 -6.87248551 3.39301257 -11 4 C-11 3.01 -11 2.02 -11 1 C-3.57142857 -1.42857143 -3.57142857 -1.42857143 0 0 Z " fill="#E37C11" transform="translate(225,139)"/>
<path d="M0 0 C0.99 0 1.98 0 3 0 C3 0.66 3 1.32 3 2 C2.34 2 1.68 2 1 2 C0.67 2.99 0.34 3.98 0 5 C-2.31 5 -4.62 5 -7 5 C-7 4.34 -7 3.68 -7 3 C-5.5459375 2.5359375 -5.5459375 2.5359375 -4.0625 2.0625 C-1.15934208 1.30476658 -1.15934208 1.30476658 0 0 Z " fill="#D55B03" transform="translate(226,134)"/>
<path d="M0 0 C0.66 0.33 1.32 0.66 2 1 C0.19587357 4.26460973 -0.83394693 5.88929795 -4 8 C-4 4.09161134 -2.49432124 2.88405893 0 0 Z " fill="#F77C11" transform="translate(734,746)"/>
<path d="M0 0 C0 0.66 0 1.32 0 2 C-0.66 2 -1.32 2 -2 2 C-2.66 3.32 -3.32 4.64 -4 6 C-5.32 5.67 -6.64 5.34 -8 5 C-6.45487538 1.90975077 -3.48715062 0 0 0 Z " fill="#EC5D07" transform="translate(413,606)"/>
<path d="M0 0 C1.9375 0.625 1.9375 0.625 4 2 C4.75 5.125 4.75 5.125 5 8 C4.67 7.34 4.34 6.68 4 6 C3.01 5.67 2.02 5.34 1 5 C0.67 3.35 0.34 1.7 0 0 Z " fill="#E05908" transform="translate(791,454)"/>
<path d="M0 0 C0.66 0.66 1.32 1.32 2 2 C0.02 2.99 0.02 2.99 -2 4 C-2 4.66 -2 5.32 -2 6 C-2.99 6 -3.98 6 -5 6 C-5 5.01 -5 4.02 -5 3 C-2.5 1.3125 -2.5 1.3125 0 0 Z " fill="#E25806" transform="translate(289,432)"/>
<path d="M0 0 C2.31 0.66 4.62 1.32 7 2 C7 2.99 7 3.98 7 5 C5.35 5 3.7 5 2 5 C1.34 3.35 0.68 1.7 0 0 Z " fill="#E67E0E" transform="translate(653,880)"/>
<path d="M0 0 C5.75 2.625 5.75 2.625 8 6 C5.69 5.34 3.38 4.68 1 4 C0.67 2.68 0.34 1.36 0 0 Z " fill="#D35C05" transform="translate(215,793)"/>
<path d="M0 0 C1.65 0 3.3 0 5 0 C5.33 1.65 5.66 3.3 6 5 C5.01 5.66 4.02 6.32 3 7 C2.87625 6.030625 2.7525 5.06125 2.625 4.0625 C2.41875 3.051875 2.2125 2.04125 2 1 C1.34 0.67 0.68 0.34 0 0 Z " fill="#C5620A" transform="translate(197,769)"/>
<path d="M0 0 C0.99 0 1.98 0 3 0 C3 2.31 3 4.62 3 7 C2.01 6.67 1.02 6.34 0 6 C0 4.02 0 2.04 0 0 Z " fill="#EB7F07" transform="translate(194,688)"/>
<path d="M0 0 C0.66 0.33 1.32 0.66 2 1 C1.34 2.65 0.68 4.3 0 6 C-2.97 5.505 -2.97 5.505 -6 5 C-3.8614515 2.8614515 -2.86724686 2.57344937 0 2 C0 1.34 0 0.68 0 0 Z " fill="#D17C16" transform="translate(204,515)"/>
<path d="M0 0 C0.66 0.66 1.32 1.32 2 2 C0.8125 3.5625 0.8125 3.5625 -1 5 C-3.6875 4.6875 -3.6875 4.6875 -6 4 C-6 3.34 -6 2.68 -6 2 C-4.02 2 -2.04 2 0 2 C0 1.34 0 0.68 0 0 Z " fill="#DE740A" transform="translate(574,512)"/>
<path d="M0 0 C2.97 0 5.94 0 9 0 C9 0.99 9 1.98 9 3 C2.84765625 2.4140625 2.84765625 2.4140625 1 2 C0.67 1.34 0.34 0.68 0 0 Z " fill="#E44B00" transform="translate(524,416)"/>
<path d="M0 0 C0.99 0 1.98 0 3 0 C3 0.66 3 1.32 3 2 C3.804375 2.12375 4.60875 2.2475 5.4375 2.375 C6.7059375 2.684375 6.7059375 2.684375 8 3 C8.33 3.66 8.66 4.32 9 5 C5.65626525 4.44271087 2.96687001 3.64826111 0 2 C0 1.34 0 0.68 0 0 Z " fill="#D14A05" transform="translate(716,406)"/>
<path d="M0 0 C2 2 2 2 2.125 5.125 C2.08375 6.07375 2.0425 7.0225 2 8 C1.01 8 0.02 8 -1 8 C-0.67 5.36 -0.34 2.72 0 0 Z " fill="#E57609" transform="translate(195,385)"/>
<path d="M0 0 C1.65 0 3.3 0 5 0 C5 0.66 5 1.32 5 2 C6.32 2.33 7.64 2.66 9 3 C8.34 3.66 7.68 4.32 7 5 C3.535 3.02 3.535 3.02 0 1 C0 0.67 0 0.34 0 0 Z " fill="#E46B0C" transform="translate(611,346)"/>
<path d="M0 0 C2.375 0.3125 2.375 0.3125 5 1 C5.66 1.99 6.32 2.98 7 4 C5.02 4 3.04 4 1 4 C0.67 2.68 0.34 1.36 0 0 Z " fill="#CB6306" transform="translate(332,298)"/>
<path d="M0 0 C0.99 0.33 1.98 0.66 3 1 C3 2.32 3 3.64 3 5 C2.34 5 1.68 5 1 5 C1 6.98 1 8.96 1 11 C0.67 11 0.34 11 0 11 C0 7.37 0 3.74 0 0 Z " fill="#FF3D00" transform="translate(194,269)"/>
<path d="M0 0 C0.99 0 1.98 0 3 0 C3 2.31 3 4.62 3 7 C2.01 6.67 1.02 6.34 0 6 C0 4.02 0 2.04 0 0 Z " fill="#E28800" transform="translate(194,263)"/>
<path d="M0 0 C0.99 0 1.98 0 3 0 C3 1.98 3 3.96 3 6 C3.99 6.33 4.98 6.66 6 7 C4.68 7 3.36 7 2 7 C2 5.68 2 4.36 2 3 C1.34 3 0.68 3 0 3 C0 2.01 0 1.02 0 0 Z " fill="#DD5404" transform="translate(647,871)"/>
<path d="M0 0 C1.32 0.33 2.64 0.66 4 1 C4 1.99 4 2.98 4 4 C4.66 4 5.32 4 6 4 C5.67 4.99 5.34 5.98 5 7 C3.29115995 5.37660195 1.62553283 3.70680947 0 2 C0 1.34 0 0.68 0 0 Z " fill="#D45A05" transform="translate(614,817)"/>
<path d="M0 0 C-0.33 1.32 -0.66 2.64 -1 4 C-2.65 3.67 -4.3 3.34 -6 3 C-3.375 0 -3.375 0 0 0 Z " fill="#F1720C" transform="translate(397,729)"/>
<path d="M0 0 C2 3 2 3 1.625 5.6875 C1.41875 6.450625 1.2125 7.21375 1 8 C0.34 8 -0.32 8 -1 8 C-1.04241723 5.66705225 -1.04092937 3.33297433 -1 1 C-0.67 0.67 -0.34 0.34 0 0 Z " fill="#D86E0A" transform="translate(203,619)"/>
<path d="M0 0 C0.66 0.66 1.32 1.32 2 2 C1.7578125 4.1640625 1.7578125 4.1640625 1.125 6.625 C0.92132813 7.44226563 0.71765625 8.25953125 0.5078125 9.1015625 C0.34023437 9.72804688 0.17265625 10.35453125 0 11 C-0.33 11 -0.66 11 -1 11 C-1.0270043 9.54176788 -1.04639787 8.08339325 -1.0625 6.625 C-1.07410156 5.81289063 -1.08570313 5.00078125 -1.09765625 4.1640625 C-1 2 -1 2 0 0 Z " fill="#E67A19" transform="translate(206,602)"/>
<path d="M0 0 C0.33 0.99 0.66 1.98 1 3 C-0.9375 5.6875 -0.9375 5.6875 -3 8 C-3.1875 5.125 -3.1875 5.125 -3 2 C-2.01 1.34 -1.02 0.68 0 0 Z " fill="#EC720F" transform="translate(222,463)"/>
<path d="M0 0 C0.94875 0.350625 1.8975 0.70125 2.875 1.0625 C2.875 1.3925 2.875 1.7225 2.875 2.0625 C-0.755 2.0625 -4.385 2.0625 -8.125 2.0625 C-3.46982759 -1.04094828 -3.46982759 -1.04094828 0 0 Z " fill="#E06808" transform="translate(512.125,413.9375)"/>
<path d="M0 0 C0.66 0 1.32 0 2 0 C2 1.98 2 3.96 2 6 C1.01 6 0.02 6 -1 6 C-1.042721 4.33388095 -1.04063832 2.66617115 -1 1 C-0.67 0.67 -0.34 0.34 0 0 Z " fill="#E17610" transform="translate(308,594)"/>
<path d="M0 0 C1.65 0 3.3 0 5 0 C3.37660195 1.70884005 1.70680947 3.37446717 0 5 C-0.66 5 -1.32 5 -2 5 C-1.34 3.35 -0.68 1.7 0 0 Z " fill="#E76D0D" transform="translate(490,560)"/>
<path d="M0 0 C0.66 0 1.32 0 2 0 C1.3125 1.9375 1.3125 1.9375 0 4 C-2.625 4.75 -2.625 4.75 -5 5 C-4.67 4.01 -4.34 3.02 -4 2 C-2.68 2 -1.36 2 0 2 C0 1.34 0 0.68 0 0 Z " fill="#AC4806" transform="translate(527,539)"/>
<path d="M0 0 C-0.33 1.32 -0.66 2.64 -1 4 C-2.65 4 -4.3 4 -6 4 C-5.67 3.01 -5.34 2.02 -5 1 C-2 0 -2 0 0 0 Z " fill="#DD7A12" transform="translate(773,515)"/>
<path d="M0 0 C1.5 1.1875 1.5 1.1875 3 3 C3.1875 5.6875 3.1875 5.6875 3 8 C2.01 8 1.02 8 0 8 C0 5.36 0 2.72 0 0 Z " fill="#C63600" transform="translate(194,507)"/>
<path d="M0 0 C1.5 1.1875 1.5 1.1875 3 3 C3.1875 5.6875 3.1875 5.6875 3 8 C2.01 7.67 1.02 7.34 0 7 C0 4.69 0 2.38 0 0 Z " fill="#E26E08" transform="translate(603,481)"/>
<path d="M0 0 C0.99 0.33 1.98 0.66 3 1 C2.67 1.99 2.34 2.98 2 4 C-0.31 4 -2.62 4 -5 4 C-4.01 3.67 -3.02 3.34 -2 3 C-1.67 2.34 -1.34 1.68 -1 1 C-0.67 0.67 -0.34 0.34 0 0 Z " fill="#D4740D" transform="translate(461,423)"/>
<path d="M0 0 C0.99 0.66 1.98 1.32 3 2 C-1.625 5 -1.625 5 -5 5 C-4.67 4.01 -4.34 3.02 -4 2 C-2.68 2 -1.36 2 0 2 C0 1.34 0 0.68 0 0 Z " fill="#DD5106" transform="translate(389,349)"/>
<path d="M0 0 C1.98 0 3.96 0 6 0 C5.67 0.99 5.34 1.98 5 3 C3.02 3 1.04 3 -1 3 C-0.67 2.01 -0.34 1.02 0 0 Z " fill="#E8760F" transform="translate(411,338)"/>
</svg>
